<?xml version="1.0" encoding="utf-8"?>
<!-- Generator: Adobe Illustrator 26.1.0, SVG Export Plug-In . SVG Version: 6.00 Build 0)  -->
<svg version="1.1" id="Camada_1" xmlns="http://www.w3.org/2000/svg" xmlns:xlink="http://www.w3.org/1999/xlink" x="0px" y="0px"
	 viewBox="0 0 34.2 29.1" style="enable-background:new 0 0 34.2 29.1;" xml:space="preserve">
<style type="text/css">
	.st0{fill:#FFFFFF;}
	.st1{fill:none;stroke:#0087CD;stroke-width:2;stroke-linecap:round;}
	.st2{clip-path:url(#SVGID_00000090288361457777569500000011381180866032820918_);}
	.st3{fill:#DC0E32;}
	.st4{fill:#CA9E67;}
	.st5{clip-path:url(#SVGID_00000070817311516563861300000001633584281295412636_);}
	.st6{fill:#0087CD;}
	.st7{clip-path:url(#SVGID_00000181791547394916669810000007819242247339171234_);}
</style>
<g transform="translate(295 16)">
	<path d="M-292.7-12.9v1.2h3.4l1.3,2l2.2,13.1h0l-1.3,2.1v1.2h21V5.5h-19.6l1.5-2.4l18.8-2.9l1.9-10h-23.1l-1.9-3.1v-0.1H-292.7z"/>
	<g transform="translate(0 0)">
		<g>
			<defs>
				<rect id="SVGID_00000021836754003696673640000005330957633285830316_" x="-292.7" y="-12.9" width="29.2" height="25"/>
			</defs>
			<clipPath id="SVGID_00000140010204950479939950000013743717684167188155_">
				<use xlink:href="#SVGID_00000021836754003696673640000005330957633285830316_"  style="overflow:visible;"/>
			</clipPath>
			<g style="clip-path:url(#SVGID_00000140010204950479939950000013743717684167188155_);">
				<path d="M-267.4,8.6c-0.9,0-1.7,0.8-1.7,1.7s0.8,1.7,1.7,1.7s1.7-0.8,1.7-1.7C-265.7,9.4-266.5,8.6-267.4,8.6L-267.4,8.6"/>
				<path d="M-285.6,8.6c-0.9,0-1.7,0.8-1.7,1.7c0,0.9,0.8,1.7,1.7,1.7c0.9,0,1.7-0.8,1.7-1.7C-283.9,9.4-284.7,8.6-285.6,8.6
					C-285.6,8.6-285.6,8.6-285.6,8.6"/>
			</g>
		</g>
	</g>
</g>
</svg>
