<?xml version="1.0" encoding="utf-8"?>
<!-- Generator: Adobe Illustrator 26.1.0, SVG Export Plug-In . SVG Version: 6.00 Build 0)  -->
<svg version="1.1" id="Camada_1" xmlns="http://www.w3.org/2000/svg" xmlns:xlink="http://www.w3.org/1999/xlink" x="0px" y="0px"
	 viewBox="0 0 405.3 190.3" style="enable-background:new 0 0 405.3 190.3;" xml:space="preserve">
<style type="text/css">
	.st0{fill:#CA9E67;}
	.st1{fill:#E62942;}
	.st2{fill:#FFFFFF;}
	.st3{fill:#179FDA;}
</style>
<g>
	<path class="st1" d="M278,83.9c3.3-1.9,6.4-4.4,8.7-7.7c1.1-1.6,1.4-3.8,2-5.8c2.4-8.2,6.6-15.2,14-19.8c3.6-2.3,7.5-3.8,11.9-2.7
		c2.5,0.6,4.2,2.5,4.5,4.8c0.2,1.6-0.4,2.6-2,2.9c-1.1,0.2-2.2,0.2-3.3,0.5c-4.9,1.2-8.5,4.2-10.6,8.8c-2.1,4.5-3.3,9.2-3.1,14.1
		c0.1,1.8,0.5,3.6,1.2,5.3c1.2,2.9,4.4,4.2,7.4,3.2c1.4-0.5,2.7-1.2,3.8-2.1c3-2.6,5-5.9,6.3-9.6c0.5-1.4,0.1-2.2-1.2-2.9
		c-1.5-0.9-3-2-4-3.4c-0.7-1-1-2.7-0.6-3.9c0.5-1.9,1.5-3.7,2.6-5.3c1.4-2.1,3.3-2.5,6.1-1.6c1.2,0.4,2.4,1.1,3.4,1.8
		c4,2.9,7.8,2.8,11.1-0.8c3-3.3,5.6-6.9,8.1-10.6c1.9-2.8,2.9-3.4,6-1.8c0.5,0.3,1,0.6,1.5,0.9c2.8,1.8,3.6,3.6,2.9,6.9
		c-0.3,1.5-0.7,3-1.2,5c2.6-3.4,4.8-6.7,7.4-9.5c2.9-3.2,5.9-6.2,9.2-9c3.1-2.6,6.4-2.6,9.9-0.4c6.4,4,6.6,5.8,3.7,12.1
		c-2.4,5.3-4.3,10.9-6.3,16.4c-0.4,1-0.3,2.2-0.3,3.3c0,1.8,0.9,2.3,2.5,1.4c0.7-0.4,1.3-0.8,1.9-1.3c1.3-1.1,2.7-1.9,4.4-0.6
		c2.2,1.6,3.1,3.3,2.3,5.4c-0.7,1.8-1.6,3.5-2.9,5c-2.6,3.1-5.4,6-8.2,9c-1.3,1.4-2.9,1.2-4.1,0.1c-3.8-3.3-6.7-7.2-7.4-12.4
		c-0.6-4.6,0.7-8.8,2-13.1c0.9-2.7,1.8-5.3,2.7-8c0.1-0.4,0.1-0.8,0.2-1.1c-0.1-0.1-0.3-0.3-0.4-0.4c-1.3,0.9-2.6,1.7-3.8,2.8
		c-5.8,5.4-10.2,11.8-13.8,18.9c-2.5,5-4.7,10.2-7,15.3c-1.2,2.7-2.5,3.2-5.1,1.7c-1.3-0.7-2.4-1.7-3.5-2.6
		c-1.8-1.5-2.4-3.6-1.8-5.9c1.2-4.7,2.3-9.4,3.5-14.1c0.2-0.7,0.2-1.3,0.3-2c-2.7,1-5.1,2.2-7.7,2.7c-2,0.4-2.6,1.2-3,3.2
		c-1.7,9-6.4,16-13.8,21.3c-4.3,3.1-9.2,3.7-14.1,2.9c-4.4-0.7-7.2-4-9.2-7.8c-0.8-1.5-1.5-3.2-2.4-5.1c-1.1,0.9-2,1.6-2.9,2.4
		c-4.1,3.7-8.1,7.5-12.3,11.1c-5,4.3-10.7,6.5-17.2,3.8c-2-0.8-3.7-2.4-5.3-3.9c-1.1-1-1.1-2.5-0.4-3.9c1.2-2.2,2.2-4.5,3.6-6.7
		c1.4-2.2,3.1-2.1,4.4,0.3c1.4,2.5,2.9,3.3,5.1,2.7c2.1-0.5,3.4-2.5,3.2-5.1c-0.2-1.8-0.6-3.6-1.3-5.3c-1.2-3.1-2.6-6-4-9
		c-1.4-2.9-2-2.9-3.8-0.3c-4.2,5.9-8.3,11.8-12.7,17.6c-4.4,5.7-9,11.3-14.7,15.6c-5.1,3.9-10.8,5.9-17.2,3.8
		c-5.7-1.9-8.7-6.4-10.7-11.7c-1-2.7-1.5-5.5-2.2-8.3c-2.5,0.5-5.1,1.1-7.7,1.7c-0.4,0.1-0.8,0.8-0.9,1.3
		c-1.6,8.4-6.2,15.1-12.7,20.4c-11.2,9.1-25.6,3.7-28.3-10.5c-1.4-7.7,0.3-14.9,3.2-21.9c2.6-6.2,6.2-11.8,12.1-15.4
		c4.5-2.7,9.3-3.6,14.4-2.4c4.8,1.1,7.4,5,6.3,9.2c2.8,1.6,4.2,4.3,5.2,7.2c0.3,1,0.8,1.5,1.9,1.3c0.7-0.2,1.5-0.2,2.3-0.4
		c4-0.7,4.1-0.9,5-4.8c3.9-18.3,11.6-34.9,23.8-49.3c3.8-4.5,8.1-8.5,13.8-10.7c1.1-0.4,2.4-0.8,3.6-0.9c5.3-0.6,7.9,1.5,8.8,6.7
		c0.8,4.6-0.1,9-1.3,13.4c-2.1,7.2-5.7,13.6-9.8,19.8c-5.5,8.3-11.4,16.4-18.5,23.5c-2,2-4.3,3.6-6.5,5.5c-0.6,0.5-1.3,1.4-1.3,2.1
		c0.2,2.1,0.5,4.2,1.3,6.1c1.4,3.3,4.6,4.6,8,3.5c5-1.6,8.6-5.2,12.1-8.9c8.1-8.6,14.4-18.5,21.2-28.1c1.2-1.7,2.5-3.3,4-4.7
		c1.9-1.8,4.3-1.8,6.6-1.2c1.6,0.4,2.1,1.5,1.8,3.1c0,0.2,0,0.5-0.1,0.7c-2,3.4-0.7,6.5,0.8,9.5c1,2,2.1,3.9,3.1,5.9
		C274.2,76.4,276.1,80,278,83.9z M177.3,75.6c-2.4-1.2-5.4-0.7-7.7,1.8c-5.2,5.7-7.7,12.4-7.1,20.1c0.5,6.6,6.1,9,11.5,5.2
		c4.1-2.9,6.1-7.1,7.5-11.8c0.2-0.6-0.5-1.6-1-2.1c-0.8-0.8-2-1.3-2.8-2.1c-1.7-1.5-2.9-3.3-2.3-5.7
		C175.9,79.1,176.7,77.4,177.3,75.6z M213.2,71.9c0.4-0.2,0.6-0.2,0.7-0.3c0.5-0.4,0.9-0.7,1.4-1.1c7.2-7.3,13.5-15.3,18.3-24.5
		c1.2-2.3,2-4.9,2.4-7.5c0.5-2.5-1.1-3.6-3.3-2.2c-2.2,1.4-4.4,3.2-6.1,5.3c-6,7.5-9.7,16.2-12.3,25.5
		C214,68.6,213.6,70.2,213.2,71.9z M67.4,45.9c-0.9,9-2.9,17.8-5.8,26.4c-5.4,15.7-13,30.4-20.7,45c-1.1,2.1-2.2,4.2-3.1,6.3
		c-0.7,1.6-0.7,3.3,0.3,4.9c3.6,5.9,9.8,5.9,13.2-0.1c0-0.1,0-0.1,0.1-0.2C63.7,105.6,77.8,84,92.7,62.9c2.9-4.1,6.1-7.9,9.3-11.8
		c0.5-0.6,1.4-0.9,2.1-1.3c0.1,0.8,0.3,1.7,0.2,2.5c-0.4,1.9-0.8,3.8-1.4,5.6C98.1,71,93.3,84.2,88.5,97.3
		c-2.2,5.9-4.5,11.8-6.6,17.8c-1.4,4-0.6,6.2,2.8,8.5c1.6,1.1,3.3,2,5.1,2.7c3,1.2,5.5,0.4,7.5-2.1c0.9-1.1,1.8-2.2,2.4-3.5
		c7-14.3,15.5-27.8,23.8-41.4c4.8-7.9,9.4-15.9,15.5-22.9c0.6-0.7,1.3-1.4,1.9-2.1c0.2,0.1,0.4,0.2,0.5,0.3
		c-0.2,0.8-0.4,1.6-0.7,2.4C133.4,76,126.4,95,121,114.6c-2.9,10.7-5.9,21.4-4.7,32.7c0.4,4.1,1.2,8.3,2.4,12.2
		c1.3,4,2.9,4.1,5.4,0.6c5.8-8.1,11.6-16.2,17.3-24.3c0.4-0.6,0.8-1.2,1-1.8c0.7-2.1-0.1-3.9-1.5-5.5c-1.2-1.3-2.3-0.5-3.5,0
		c-1.1,0.5-1.9,0.1-2.2-1c-0.3-1.2-0.5-2.5-0.3-3.6c1.3-6.3,2.3-12.6,4.1-18.7c5.2-18,12.1-35.4,19.3-52.6c2.9-6.9,6-13.6,8.9-20.5
		c2.3-5.5-1-12.7-6.5-14.9c-0.5-0.2-1-0.3-1.5-0.3c-2.6-0.2-4.4,1.4-6.2,2.9c-6.2,5.6-11.5,11.9-16.6,18.5
		c-9.6,12.3-18,25.4-25.9,38.9c-0.6,1-1.2,1.9-1.8,2.9c-0.2-0.1-0.3-0.2-0.5-0.2c0.1-0.5,0.2-1,0.3-1.5c1-3.5,2-7.1,3.1-10.6
		c3.2-10.7,6.4-21.4,9.4-32.2c1.7-6-1.1-10.8-7.1-12.7c-2-0.6-4-0.7-5.6,0.8c-2,1.8-4.1,3.6-5.7,5.7C95.6,38.6,88.6,48,81.7,57.4
		c-2,2.8-3.9,5.6-5.9,8.4c-0.2-0.7-0.1-1.4,0-2c2-8.9,4-17.9,4.5-27c0.2-4.1-0.7-7.8-3.6-10.9c-3.3-3.5-6.5-3.4-9.7,0.1
		c-9.9,11-21,20.5-33.2,28.8c-1.3,0.9-2.6,1.6-4,2.2c-1.7,0.7-2.1,0.3-1.9-1.5c0.2-1.3,0.3-2.7,0.6-4.4c-0.8,0.4-1.2,0.5-1.5,0.8
		c-4.1,3.5-8.3,6.9-12.3,10.5c-1.1,1-1.9,2.7-2.3,4.3c-0.7,2.6-0.1,5.2,1.9,7.2c1.9,1.8,4.2,1.3,6.3,0.4c2.7-1.1,5.4-2.2,8-3.6
		c13.9-7.7,26.8-16.8,39-27.3C67.4,44.4,67.5,45.2,67.4,45.9z"/>
	<path class="st0" d="M199.4,147.5v4.1c0,11.1-2.7,25.8-16.7,25.8c-14,0-18.6-15.1-18.6-26.6c0-12,3.9-27.2,18.6-27.2
		c7.9,0,13.1,5,15.3,12.4l-10,3.9c-0.5-2.6-1.3-6.7-5.3-6.7c-7-0.4-7.7,12.4-7.7,17.3c0,5.4,0.3,17.3,7.9,17.3
		c5.3,0,6.1-7.1,6.1-10.6h-6.6v-9.7H199.4z M244.8,150.5c0,19.6-9.1,26.9-18.3,26.9c-9.2,0-18.3-7.3-18.3-26.9s9.1-26.9,18.3-26.9
		C235.7,123.6,244.8,130.9,244.8,150.5z M226.5,167.8c6.8,0,7.3-13.2,7.3-17.3c0-4.6-0.5-17.3-7.3-17.3c-6.8,0-7.3,12.7-7.3,17.3
		C219.2,154.6,219.7,167.8,226.5,167.8z M265.8,124.4v42.4h10.8v9.7h-21.1v-52.1H265.8z M286.4,176.5v-52.1h7.8
		c1.8,0,23.4-2.6,23.4,26.5c0,14.9-5.7,25.6-22,25.6H286.4z M307.3,150.8c0-6.6-2.1-17.1-10.6-17.1v33.6
		C305,167.7,307.3,157.3,307.3,150.8z"/>
</g>
</svg>
