<?xml version="1.0" encoding="utf-8"?>
<!-- Generator: Adobe Illustrator 26.1.0, SVG Export Plug-In . SVG Version: 6.00 Build 0)  -->
<svg version="1.1" id="Camada_1" xmlns="http://www.w3.org/2000/svg" xmlns:xlink="http://www.w3.org/1999/xlink" x="0px" y="0px"
	 viewBox="0 0 405.3 394.6" style="enable-background:new 0 0 405.3 394.6;" xml:space="preserve">
<style type="text/css">
	.st0{fill:#CA9E67;}
	.st1{fill:#E62942;}
	.st2{fill:#FFFFFF;}
	.st3{fill:#179FDA;}
</style>
<g>
	<path class="st0" d="M210,34l34.9-29.6l19.6,40.8C247.5,38.6,229.2,34.7,210,34z M197.2,34L162.3,4.4l-19.6,40.8
		C159.7,38.6,178,34.7,197.2,34z M130.5,50.5L86.8,37.6l-1.1,44.5C98.7,69.3,113.8,58.6,130.5,50.5z M36.9,198.7
		c0-15.7,2.2-30.8,6.3-45.1L6,176l31,29C36.9,202.9,36.9,200.8,36.9,198.7z M401.2,176L364,153.5c4.1,14.3,6.3,29.5,6.3,45.1
		c0,2.1-0.1,4.2-0.1,6.3L401.2,176z M358.8,138.4l16.9-40.1l-44.5-5.7C342.7,106.2,352.1,121.6,358.8,138.4z M321.5,82.2l-1.1-44.5
		l-43.7,12.9C293.4,58.6,308.5,69.3,321.5,82.2z M76,92.6l-44.5,5.7l16.9,40.1C55,121.6,64.4,106.2,76,92.6z M38.6,222.8l-24,34.4
		l39,13.6C46.3,255.9,41.2,239.8,38.6,222.8z M353.5,270.8l39-13.6l-24-34.4C366,239.8,360.9,255.9,353.5,270.8z M249.5,357.1
		l34.9,18.8l9.3-38.6C280.2,345.9,265.3,352.7,249.5,357.1z M310.9,324.8l40.3,3.2l-7.6-39.9C334.7,301.8,323.6,314.2,310.9,324.8z
		 M63.5,288L55.9,328l40.3-3.2C83.6,314.2,72.5,301.8,63.5,288z M113.5,337.3l9.3,38.6l34.9-18.8C141.8,352.7,127,345.9,113.5,337.3
		z M203.6,363.5c-8.2,0-16.2-0.6-24.1-1.7l24.1,31.2l24.1-31.2C219.8,362.9,211.8,363.5,203.6,363.5z M361.4,199.4
		c0-86.6-70.5-157.1-157.1-157.1c-86.6,0-157.1,70.5-157.1,157.1c0,86.6,70.5,157.1,157.1,157.1C290.9,356.5,361.4,286,361.4,199.4z
		 M356.2,199.4c0,83.7-68.1,151.9-151.9,151.9S52.5,283.2,52.5,199.4S120.6,47.6,204.3,47.6S356.2,115.7,356.2,199.4z"/>
	<g>
		<g>
			<path class="st1" d="M172.2,223.2c-9.9,0-17.9-7.2-19.9-17.9c-1.4-7.4-0.3-15,3.5-23.9c3.4-8.1,7.7-13.5,13.6-17
				c3.8-2.3,7.8-3.4,11.9-3.4c1.7,0,3.4,0.2,5.1,0.6c3.4,0.8,6.1,2.7,7.7,5.3c1,1.7,1.6,3.7,1.5,5.7c2.2,1.9,3.5,4.3,4.3,6.4
				c0.2,0,0.5-0.1,0.7-0.1c0.5-0.1,1.3-0.2,1.8-0.4c0.1-0.5,0.3-1.2,0.4-1.7c4.2-19.5,12.4-36.6,24.5-50.8c3.4-4,8.2-9,15.2-11.7
				c1.5-0.6,3-1,4.4-1.2c0.7-0.1,1.4-0.1,2.1-0.1c4.1,0,9.2,1.7,10.6,9.8c1,5.7-0.3,11-1.4,14.9c-2,6.7-5.2,13.3-10.2,20.8
				c-4.6,7-11,16-18.9,24.1c-1.3,1.3-2.7,2.5-4.1,3.6c-0.9,0.7-1.7,1.4-2.5,2.1c0,0,0,0,0,0c0.2,1.5,0.4,3,0.9,4.2
				c0.5,1.2,1.3,1.7,2.4,1.7c0.4,0,0.9-0.1,1.3-0.2c4.1-1.3,7.2-4.4,10.6-8c6.3-6.6,11.6-14.2,16.7-21.7c1.4-2,2.8-4.1,4.2-6.1
				c1.4-2,2.9-3.7,4.4-5.2c1.7-1.6,3.9-2.5,6.4-2.5c1.1,0,2.3,0.2,3.5,0.5c3.3,0.9,5,3.7,4.3,7.1c0,0.4-0.1,1.1-0.6,1.8
				c-0.9,1.6-0.7,3,0.9,6.2c0.5,1,1,2,1.6,3c0.5,1,1,1.9,1.5,2.9c1.3,2.5,2.6,5.1,3.9,7.7c1.9-1.4,3.3-2.9,4.4-4.5
				c0.5-0.7,0.8-1.9,1.1-3.1c0.1-0.6,0.3-1.1,0.4-1.7c2.9-10,8-17.1,15.5-21.8c2.5-1.5,6.3-3.6,10.8-3.6c1.2,0,2.5,0.2,3.7,0.5
				c3.9,1,6.7,4,7.1,7.8c0.1,1,0,2-0.3,2.9c0.2,0,0.3,0.1,0.5,0.2c1.5,0.5,2.9,1.3,4.3,2.3c1.3,0.9,2.4,1.4,3.4,1.4
				c0.4,0,1.5,0,3.1-1.7c2.4-2.7,4.8-5.8,7.8-10.2c1-1.5,2.8-4.2,6.2-4.2c1.6,0,3.2,0.7,4.3,1.3c0.6,0.3,1.2,0.7,1.7,1
				c1.8,1.2,3.1,2.4,3.9,3.9c0.2-0.3,0.5-0.6,0.8-0.9c2.9-3.3,6.1-6.4,9.5-9.3c2.2-1.9,4.6-2.8,7.3-2.8c2.2,0,4.5,0.7,6.8,2.1
				c8.4,5.2,8.4,9.3,5,16.6c-1.9,4-3.4,8.4-4.9,12.6c-0.2,0.5-0.4,1.1-0.6,1.6c0.8-0.4,1.7-0.7,2.8-0.7c1.3,0,2.6,0.4,3.8,1.3
				c4.9,3.6,4.3,7.5,3.5,9.5c-0.9,2.4-2.1,4.4-3.4,6c-2.2,2.6-4.5,5-6.8,7.4l-1.6,1.7c-1.3,1.3-2.9,2.1-4.6,2.1
				c-1.5,0-3-0.6-4.4-1.7c-5-4.3-7.9-9.1-8.6-14.6c-0.6-4.5,0.3-8.7,1.4-12.2c-2.9,3.6-5.5,7.7-7.8,12.3c-1.9,3.7-3.6,7.6-5.3,11.3
				c-0.6,1.3-1.1,2.6-1.7,3.9c-0.5,1.1-2.1,4.6-5.9,4.6c-1.3,0-2.6-0.4-4.2-1.3c-1.5-0.9-2.9-2-4-2.9c-2.8-2.4-3.9-5.7-3-9.4
				c0.5-2.1,1.1-4.3,1.6-6.4c0.3-1.1,0.6-2.2,0.8-3.3c-0.7,0.2-1.4,0.4-2.2,0.6c-0.1,0-0.2,0-0.2,0.1c0,0.1,0,0.2-0.1,0.3
				c-1.8,9.7-6.9,17.6-15.2,23.5c-3.6,2.6-7.7,3.9-12.3,3.9c-1.4,0-2.9-0.1-4.4-0.4c-4.9-0.8-8.8-4-11.7-9.6
				c-0.2-0.4-0.4-0.7-0.5-1.1c-1.2,1.1-2.4,2.2-3.6,3.3c-2.6,2.4-5.4,4.9-8.1,7.3c-4.5,3.8-9.1,5.8-13.8,5.8c-2.3,0-4.7-0.5-7.1-1.5
				c-2.6-1.1-4.7-3-6.3-4.6c-2.2-2.1-2.6-5.2-1.1-8.1c0.3-0.6,0.7-1.3,1-1.9c0.6-1.1,1.1-2.2,1.8-3.3c-0.8,1.1-1.6,2.1-2.4,3.2
				c-4.4,5.7-9.3,11.6-15.4,16.3c-4.7,3.6-9.3,5.3-14.1,5.3c-2.1,0-4.2-0.3-6.2-1c-5.9-1.9-10.1-6.5-12.8-13.8
				c-0.7-1.8-1.1-3.6-1.5-5.4c-0.9,0.2-1.8,0.4-2.7,0.6c-1.9,8.3-6.4,15.5-13.7,21.4C182,221.4,177.1,223.2,172.2,223.2z
				 M177.2,180.7c-4.5,5-6.5,10.8-6,17.2c0.1,1.1,0.6,3.8,2.9,3.8l0,0c0.9,0,2-0.4,3.1-1.2c2.6-1.8,4.4-4.5,5.8-8.7
				c-0.2-0.1-0.4-0.3-0.7-0.5c-0.6-0.4-1.2-0.8-1.8-1.3C177.4,187.2,176.3,184.1,177.2,180.7C177.2,180.7,177.2,180.7,177.2,180.7z
				 M261.2,186.5c1.2,0,3.6,0.5,5.3,3.7c0.4,0.7,0.7,1,0.8,1.1c0.1,0,0.2,0,0.3-0.1c0.6-0.2,0.6-0.9,0.6-1.3c-0.1-1.5-0.5-3-1-4.3
				c-0.9-2.2-1.8-4.4-2.9-6.8l-1.1,1.6c-1.8,2.5-3.5,5-5.3,7.5C259,186.7,260.3,186.5,261.2,186.5z M316.1,161.8
				c-2,1.2-3.6,3-4.7,5.4c-2,4.4-3,8.5-2.8,12.5c0.1,1.4,0.4,2.8,0.9,4c0.4,0.9,1.1,1.4,2.1,1.4c0.3,0,0.6-0.1,0.9-0.2
				c1-0.4,2-0.9,2.7-1.5c2.1-1.8,3.7-4.2,5-7.3c-2-1.3-3.4-2.5-4.4-4c-1.3-1.8-1.8-4.7-1.2-6.9C314.9,164.2,315.4,163,316.1,161.8z
				 M236.9,142.2c-0.9,0.7-1.6,1.5-2.3,2.3c-3.5,4.4-6.4,9.4-8.8,15.4c4-4.9,7.2-9.8,9.8-14.8C236.2,144.3,236.6,143.3,236.9,142.2z
				"/>
			<path class="st2" d="M248.9,116.4c4.2,0,6.3,2.2,7.1,6.8c0.8,4.6-0.1,9-1.3,13.4c-2.1,7.2-5.7,13.6-9.8,19.8
				c-5.5,8.3-11.4,16.4-18.5,23.5c-2,2-4.3,3.6-6.5,5.5c-0.6,0.5-1.3,1.4-1.3,2.1c0.2,2.1,0.5,4.2,1.3,6.1c1.1,2.5,3.2,3.9,5.6,3.9
				c0.8,0,1.6-0.1,2.4-0.4c5-1.6,8.6-5.2,12.1-8.9c8.1-8.6,14.4-18.5,21.2-28.1c1.2-1.7,2.5-3.3,4-4.7c1.2-1.1,2.6-1.5,4-1.5
				c0.9,0,1.7,0.1,2.6,0.4c1.6,0.4,2.1,1.5,1.8,3.1c0,0.2,0,0.5-0.1,0.7c-2,3.4-0.7,6.5,0.8,9.5c1,2,2.1,3.9,3.1,5.9
				c1.9,3.6,3.7,7.3,5.7,11.2c3.3-1.9,6.4-4.4,8.7-7.7c1.1-1.6,1.4-3.8,2-5.8c2.4-8.2,6.6-15.2,14-19.8c2.8-1.7,5.7-3,9-3
				c0.9,0,1.9,0.1,2.9,0.4c2.5,0.6,4.2,2.5,4.5,4.8c0.2,1.6-0.4,2.6-2,2.9c-1.1,0.2-2.2,0.2-3.3,0.5c-4.9,1.2-8.5,4.2-10.6,8.8
				c-2.1,4.5-3.3,9.2-3.1,14.1c0.1,1.8,0.5,3.6,1.2,5.3c0.9,2.2,3,3.5,5.3,3.5c0.7,0,1.4-0.1,2-0.3c1.4-0.5,2.7-1.2,3.8-2.1
				c3-2.6,5-5.9,6.3-9.6c0.5-1.4,0.1-2.2-1.2-2.9c-1.5-0.9-3-2-4-3.4c-0.7-1-1-2.7-0.6-3.9c0.5-1.9,1.5-3.7,2.6-5.3
				c1-1.4,2.1-2.1,3.6-2.1c0.7,0,1.6,0.2,2.5,0.5c1.2,0.4,2.4,1.1,3.4,1.8c1.8,1.3,3.7,2,5.4,2c2,0,3.9-0.9,5.7-2.9
				c3-3.3,5.6-6.9,8.1-10.6c1.2-1.8,2-2.7,3.3-2.7c0.7,0,1.6,0.3,2.7,0.9c0.5,0.3,1,0.6,1.5,0.9c2.8,1.8,3.6,3.6,2.9,6.9
				c-0.3,1.5-0.7,3-1.2,5c2.6-3.4,4.8-6.7,7.4-9.5c2.9-3.2,5.9-6.2,9.2-9c1.6-1.4,3.3-2,5-2c1.6,0,3.3,0.5,4.9,1.6
				c6.4,4,6.6,5.8,3.7,12.1c-2.4,5.3-4.3,10.9-6.3,16.4c-0.4,1-0.3,2.2-0.3,3.3c0,1.2,0.4,1.8,1.2,1.8c0.4,0,0.8-0.1,1.4-0.4
				c0.7-0.4,1.3-0.8,1.9-1.3c0.9-0.7,1.7-1.3,2.6-1.3c0.5,0,1.1,0.2,1.8,0.7c2.2,1.6,3.1,3.3,2.3,5.4c-0.7,1.8-1.6,3.5-2.9,5
				c-2.6,3.1-5.4,6-8.2,9c-0.6,0.7-1.3,1-2,1c-0.7,0-1.4-0.3-2.1-0.9c-3.8-3.3-6.7-7.2-7.4-12.4c-0.6-4.6,0.7-8.8,2-13.1
				c0.9-2.7,1.8-5.3,2.7-8c0.1-0.4,0.1-0.8,0.2-1.1c-0.1-0.1-0.3-0.3-0.4-0.4c-1.3,0.9-2.6,1.7-3.8,2.8
				c-5.8,5.4-10.2,11.8-13.8,18.9c-2.5,5-4.7,10.2-7,15.3c-0.8,1.7-1.6,2.6-2.7,2.6c-0.7,0-1.4-0.3-2.4-0.8
				c-1.3-0.7-2.4-1.7-3.5-2.6c-1.8-1.5-2.4-3.6-1.8-5.9c1.2-4.7,2.3-9.4,3.5-14.1c0.2-0.7,0.2-1.3,0.3-2c-2.7,1-5.1,2.2-7.7,2.7
				c-2,0.4-2.6,1.2-3,3.2c-1.7,9-6.4,16-13.8,21.3c-3.2,2.3-6.7,3.2-10.3,3.2c-1.3,0-2.6-0.1-3.9-0.3c-4.4-0.7-7.2-4-9.2-7.8
				c-0.8-1.5-1.5-3.2-2.4-5.1c-1.1,0.9-2,1.6-2.9,2.4c-4.1,3.7-8.1,7.5-12.3,11.1c-3.5,3-7.3,5-11.5,5c-1.8,0-3.7-0.4-5.7-1.2
				c-2-0.8-3.7-2.4-5.3-3.9c-1.1-1-1.1-2.5-0.4-3.9c1.2-2.2,2.2-4.5,3.6-6.7c0.7-1.1,1.4-1.6,2.1-1.6c0.8,0,1.6,0.6,2.3,1.9
				c1.1,2,2.3,2.9,3.8,2.9c0.4,0,0.8-0.1,1.3-0.2c2.1-0.5,3.4-2.5,3.2-5.1c-0.2-1.8-0.6-3.6-1.3-5.3c-1.2-3.1-2.6-6-4-9
				c-0.7-1.5-1.2-2.2-1.8-2.2c-0.5,0-1.2,0.6-2,1.9c-4.2,5.9-8.3,11.8-12.7,17.6c-4.4,5.7-9,11.3-14.7,15.6c-3.7,2.8-7.7,4.6-12,4.6
				c-1.7,0-3.4-0.3-5.2-0.9c-5.7-1.9-8.7-6.4-10.7-11.7c-1-2.7-1.5-5.5-2.2-8.3c-2.5,0.5-5.1,1.1-7.7,1.7c-0.4,0.1-0.8,0.8-0.9,1.3
				c-1.6,8.4-6.2,15.1-12.7,20.4c-3.7,3.1-7.9,4.5-11.8,4.5c-7.8,0-14.7-5.6-16.5-15c-1.4-7.7,0.3-14.9,3.2-21.9
				c2.6-6.2,6.2-11.8,12.1-15.4c3.2-1.9,6.6-2.9,10.1-2.9c1.4,0,2.8,0.2,4.3,0.5c4.8,1.1,7.4,5,6.3,9.2c2.8,1.6,4.2,4.3,5.2,7.2
				c0.3,0.8,0.6,1.3,1.4,1.3c0.1,0,0.3,0,0.5-0.1c0.7-0.2,1.5-0.2,2.3-0.4c4-0.7,4.1-0.9,5-4.8c3.9-18.3,11.6-34.9,23.8-49.3
				c3.8-4.5,8.1-8.5,13.8-10.7c1.1-0.4,2.4-0.8,3.6-0.9C247.8,116.4,248.4,116.4,248.9,116.4 M218.4,172.7c0.4-0.2,0.6-0.2,0.7-0.3
				c0.5-0.4,0.9-0.7,1.4-1.1c7.2-7.3,13.5-15.3,18.3-24.5c1.2-2.3,2-4.9,2.4-7.5c0.3-1.8-0.4-2.8-1.5-2.8c-0.5,0-1.1,0.2-1.7,0.6
				c-2.2,1.4-4.4,3.2-6.1,5.3c-6,7.5-9.7,16.2-12.3,25.5C219.2,169.3,218.9,170.9,218.4,172.7 M174.1,205.2c1.6,0,3.4-0.6,5.1-1.8
				c4.1-2.9,6.1-7.1,7.5-11.8c0.2-0.6-0.5-1.6-1-2.1c-0.8-0.8-2-1.3-2.8-2.1c-1.7-1.5-2.9-3.3-2.3-5.7c0.5-1.8,1.3-3.6,2-5.4
				c-0.8-0.4-1.7-0.6-2.7-0.6c-1.7,0-3.5,0.8-5,2.4c-5.2,5.7-7.7,12.4-7.1,20.1C168.1,202.6,170.7,205.2,174.1,205.2 M248.9,109.4
				c-0.8,0-1.6,0.1-2.5,0.2c-1.7,0.2-3.5,0.7-5.3,1.4c-7.7,3-12.9,8.4-16.6,12.7c-11.7,13.8-19.9,30.1-24.4,48.7
				c-0.4-0.5-0.8-0.9-1.2-1.3c-0.2-2.1-0.9-4.1-2-5.9c-2.1-3.5-5.6-5.9-9.9-6.9c-1.9-0.4-3.9-0.7-5.9-0.7c-4.7,0-9.3,1.3-13.7,3.9
				c-6.6,3.9-11.3,9.9-15,18.6c-4,9.6-5.2,17.8-3.7,25.9c2.3,12.4,11.7,20.7,23.4,20.7c5.7,0,11.4-2.1,16.2-6.1
				c5.9-4.8,10.2-10.5,12.9-16.9c3.2,7.7,7.9,12.6,14.6,14.7c2.4,0.8,4.9,1.2,7.3,1.2c5.5,0,10.9-2,16.2-6c3.6-2.7,6.8-5.8,9.6-9.1
				c0.5,1,1.2,1.9,2,2.7c1.9,1.8,4.2,4,7.4,5.3c2.8,1.1,5.6,1.7,8.4,1.7c5.5,0,10.9-2.2,16.1-6.6c2.8-2.4,5.5-4.9,8.2-7.3
				c0.1-0.1,0.2-0.2,0.3-0.3c3.3,4.9,7.5,7.8,12.6,8.7c1.7,0.3,3.4,0.4,5,0.4c5.3,0,10.2-1.5,14.3-4.5c4.2-3,7.6-6.5,10.3-10.4
				c0.8,1.8,2,3.5,3.6,4.9c1.3,1,2.7,2.3,4.5,3.3c1.3,0.8,3.4,1.8,5.9,1.8c2.8,0,6.6-1.2,9.1-6.7c0.6-1.3,1.2-2.6,1.7-3.9
				c1.7-3.9,3.4-7.6,5.2-11.2c0,0,0,0,0,0c1.1,5.9,4.3,11,9.6,15.6c1.9,1.7,4.2,2.5,6.6,2.5c2.7,0,5.2-1.1,7.1-3.2
				c0.5-0.6,1.1-1.1,1.6-1.7c2.3-2.4,4.6-4.9,6.9-7.6c1.6-1.9,2.9-4.2,4-6.9c0.9-2.4,2.4-8.5-4.6-13.6c-1.1-0.8-2.3-1.4-3.6-1.7
				c1.1-3.1,2.3-6,3.6-8.9c1.7-3.6,3.2-7.5,2.1-11.7c-1.2-4.6-5-7.2-8.4-9.3c-2.8-1.7-5.7-2.6-8.6-2.6c-3.4,0-6.7,1.3-9.5,3.7
				c-2.8,2.4-5.4,4.9-7.9,7.5c-0.6-0.5-1.3-1-2-1.5c-0.6-0.4-1.3-0.8-2-1.2c-1.5-0.8-3.5-1.7-5.9-1.7c-5.2,0-7.9,4-9.1,5.8
				c-2.8,4.2-5.1,7.3-7.5,9.8c-0.3,0.3-0.5,0.5-0.6,0.5c-0.2-0.1-0.6-0.3-1.2-0.7c-1-0.7-2-1.3-3-1.8c0-0.3,0-0.7-0.1-1
				c-0.6-5.3-4.4-9.5-9.8-10.8c-1.5-0.4-3-0.6-4.6-0.6c-5.4,0-9.8,2.3-12.6,4.1c-8.3,5.2-13.9,13-17,23.8c-0.2,0.6-0.3,1.3-0.5,1.8
				c-0.2,0.7-0.4,1.7-0.6,2c-0.1,0.2-0.3,0.4-0.5,0.7c-0.6-1.2-1.2-2.3-1.8-3.5c-0.5-1-1.1-2-1.6-3c-0.5-1-1.1-2-1.5-2.9
				c-0.9-1.8-1.1-2.5-1.1-2.7c0,0,0,0,0.1-0.1c0.7-1.3,0.9-2.5,1-3c1-5.2-1.8-9.7-6.9-11c-1.6-0.4-3-0.6-4.4-0.6
				c-3.4,0-6.4,1.2-8.8,3.4c-1.7,1.6-3.4,3.5-4.9,5.7c-1.4,2-2.9,4.1-4.2,6.1c-5.3,7.6-10.3,14.9-16.3,21.2
				c-3.1,3.2-5.7,5.8-8.8,6.9c-0.1-0.3-0.1-0.5-0.2-0.8c0.3-0.2,0.6-0.5,0.9-0.7c1.4-1.1,3-2.4,4.4-3.8c8.2-8.2,14.6-17.5,19.4-24.6
				c5.2-7.8,8.5-14.7,10.6-21.7c1.3-4.3,2.6-10.1,1.5-16.5C261,110.6,252.5,109.4,248.9,109.4L248.9,109.4z M312.4,181.2
				c-0.1-0.5-0.2-1.1-0.2-1.7c-0.1-1.8,0.1-3.7,0.6-5.6c0.1,0.1,0.1,0.2,0.2,0.3c0.8,1.1,1.7,2.1,2.9,3.1c-0.8,1.4-1.8,2.6-2.9,3.5
				C312.8,180.9,312.6,181.1,312.4,181.2L312.4,181.2z M174.7,197.9c0-0.1,0-0.2,0-0.3c-0.2-2.8,0.1-5.4,0.9-7.8
				c0.7,0.9,1.5,1.9,2.5,2.8c0.2,0.2,0.4,0.3,0.6,0.5c-0.9,2.1-2.1,3.5-3.5,4.5C175,197.7,174.9,197.8,174.7,197.9L174.7,197.9z"/>
		</g>
		<g>
			<path class="st1" d="M126.3,266.8c-2.6,0-4.5-1.9-5.7-5.6c-1.2-3.8-2.1-8.2-2.6-12.9c-1.2-11.8,1.8-22.9,4.7-33.7l0.1-0.3
				c3.6-13.2,8-26.2,12.5-38.4c-0.5,0.9-1,1.7-1.6,2.6c-0.7,1.1-1.4,2.3-2.1,3.4l-2.4,3.9c-7.4,12-15,24.3-21.2,37.1
				c-0.8,1.6-1.8,3-2.8,4.2c-2.6,3.3-5.6,4-7.6,4c-1.3,0-2.6-0.3-3.9-0.8c-2-0.8-4-1.8-5.8-3.1c-4.7-3.3-6-7.1-4.1-12.5
				c1.3-3.7,2.7-7.3,4-10.9c0.9-2.3,1.8-4.6,2.6-7c4.7-13,8.7-23.9,12.3-33.9c-0.7,0.9-1.3,1.8-1.9,2.6c-16.9,24-30,44.7-41.2,65
				c0,0.1-0.1,0.2-0.2,0.3c-2.2,4-5.7,6.3-9.6,6.3c-3.8,0-7.3-2.2-9.7-6.1c-1.5-2.4-1.7-5.3-0.5-8.1c1-2.3,2.2-4.6,3.2-6.6
				c8.1-15.5,15.3-29.5,20.5-44.5c2.2-6.5,3.9-13,4.9-19.6c-10.8,8.7-21.7,16-33.1,22.3c-2.5,1.4-5.1,2.4-7.6,3.5l-0.8,0.3
				c-1.1,0.5-2.8,1.1-4.6,1.1c-2.1,0-3.9-0.8-5.4-2.2c-2.9-2.8-3.9-6.7-2.8-10.6c0.5-1.8,1.4-4.2,3.3-5.9c3.1-2.8,6.3-5.5,9.5-8.2
				c1-0.8,2-1.6,3-2.5c0.6-0.5,1.1-0.7,1.6-0.9c0.2-0.1,0.4-0.2,0.6-0.3l5.9-2.9l-0.9,6.8c12.2-8.3,23.2-17.8,32.6-28.2
				c2.3-2.6,4.8-3.9,7.5-3.9c2.6,0,5.1,1.2,7.4,3.7c3.3,3.5,4.8,7.9,4.5,13.4c-0.2,4.7-0.9,9.4-1.7,14c5.9-7.9,11.9-16,17.9-23.8
				c1.5-1.9,3.2-3.5,4.9-5c0.4-0.4,0.9-0.8,1.3-1.2c1.5-1.4,3.5-2.2,5.6-2.2c1.1,0,2.2,0.2,3.5,0.6c7.9,2.6,11.6,9.2,9.4,17
				c-2,7.1-4.1,14.4-6.2,21.4c5.1-7.8,10.2-15,15.4-21.7c4.3-5.5,10.1-12.7,17-18.9c1.6-1.4,4.2-3.9,8.1-3.9c0.2,0,0.4,0,0.7,0
				c0.9,0.1,1.8,0.3,2.6,0.6c3.6,1.4,6.6,4.5,8.2,8.3c1.6,3.7,1.7,7.8,0.2,11.2c-1.5,3.6-3.1,7.2-4.6,10.7c-1.4,3.2-2.9,6.5-4.2,9.8
				c-8,19.1-14.3,35.3-19.2,52.2c-1.3,4.6-2.3,9.5-3.2,14.3c-0.3,1.3-0.5,2.6-0.8,3.9c0.3-0.1,0.7-0.1,1.1-0.1c1.1,0,2.6,0.3,4,1.9
				c3.1,3.5,2.9,6.8,2.2,8.9c-0.4,1.2-1,2.2-1.5,2.8l-1.1,1.6c-5.3,7.4-10.8,15.1-16.2,22.7C130.9,264.5,129,266.8,126.3,266.8z"/>
			<path class="st2" d="M164,117.5c0.1,0,0.3,0,0.4,0c0.5,0,1,0.1,1.5,0.3c5.5,2.2,8.8,9.5,6.5,14.9c-2.9,6.9-6,13.6-8.9,20.5
				c-7.2,17.2-14.2,34.6-19.3,52.6c-1.8,6.1-2.8,12.4-4.1,18.7c-0.2,1.2,0,2.5,0.3,3.6c0.2,0.8,0.6,1.2,1.3,1.2
				c0.3,0,0.6-0.1,0.9-0.2c0.7-0.3,1.4-0.7,2.1-0.7c0.5,0,0.9,0.2,1.4,0.7c1.4,1.6,2.2,3.4,1.5,5.5c-0.2,0.7-0.6,1.3-1,1.8
				c-5.8,8.1-11.5,16.2-17.3,24.3c-1.2,1.6-2.2,2.5-3,2.5c-0.9,0-1.7-1-2.4-3.1c-1.2-3.9-2-8.1-2.4-12.2c-1.2-11.3,1.8-22,4.7-32.7
				c5.4-19.6,12.4-38.6,19.8-57.5c0.3-0.8,0.5-1.6,0.7-2.4c-0.2-0.1-0.4-0.2-0.5-0.3c-0.7,0.7-1.3,1.4-1.9,2.1
				c-6,7-10.6,15.1-15.5,22.9c-8.3,13.5-16.9,27-23.8,41.4c-0.6,1.3-1.5,2.4-2.4,3.5c-1.4,1.7-3,2.7-4.9,2.7c-0.8,0-1.7-0.2-2.6-0.5
				c-1.8-0.7-3.5-1.6-5.1-2.7c-3.4-2.4-4.2-4.6-2.8-8.5c2.1-6,4.4-11.9,6.6-17.8c4.8-13.2,9.6-26.3,14.3-39.5
				c0.7-1.8,1.1-3.7,1.4-5.6c0.2-0.8-0.1-1.6-0.2-2.5c-0.7,0.4-1.6,0.7-2.1,1.3c-3.2,3.9-6.4,7.7-9.3,11.8
				c-14.9,21.1-29,42.8-41.5,65.5c0,0.1,0,0.1-0.1,0.2c-1.7,3-4.1,4.5-6.5,4.5c-2.4,0-4.9-1.5-6.7-4.4c-1-1.6-1-3.3-0.3-4.9
				c0.9-2.2,2-4.2,3.1-6.3c7.7-14.6,15.3-29.3,20.7-45c3-8.6,5-17.3,5.8-26.4c0.1-0.7,0-1.5,0-2.4c-12.3,10.5-25.1,19.7-39,27.3
				c-2.6,1.4-5.3,2.5-8,3.6c-1.1,0.4-2.2,0.8-3.3,0.8c-1.1,0-2.1-0.3-3-1.2c-2-1.9-2.6-4.5-1.9-7.2c0.4-1.5,1.2-3.2,2.3-4.3
				c4-3.7,8.2-7.1,12.3-10.5c0.3-0.2,0.7-0.4,1.5-0.8c-0.2,1.7-0.4,3-0.6,4.4c-0.2,1.2,0,1.8,0.7,1.8c0.3,0,0.7-0.1,1.2-0.3
				c1.4-0.6,2.8-1.3,4-2.2c12.2-8.3,23.4-17.8,33.2-28.8c1.6-1.8,3.3-2.7,4.9-2.7c1.6,0,3.2,0.9,4.8,2.6c2.9,3.1,3.8,6.8,3.6,10.9
				c-0.5,9.2-2.5,18.1-4.5,27c-0.1,0.6-0.2,1.2,0,2c2-2.8,3.8-5.7,5.9-8.4c7-9.4,14-18.8,21.1-28.1c1.6-2.1,3.8-3.9,5.7-5.7
				c1-0.9,2.1-1.3,3.2-1.3c0.8,0,1.6,0.2,2.4,0.4c5.9,1.9,8.8,6.7,7.1,12.7c-3,10.8-6.3,21.5-9.4,32.2c-1,3.5-2.1,7.1-3.1,10.6
				c-0.1,0.5-0.2,1-0.3,1.5c0.2,0.1,0.3,0.2,0.5,0.2c0.6-1,1.2-1.9,1.8-2.9c7.8-13.5,16.3-26.6,25.9-38.9
				c5.1-6.6,10.4-12.9,16.6-18.5C159.9,119,161.6,117.5,164,117.5 M33.5,152L33.5,152 M164,110.5c-5.2,0-8.6,3.1-10.5,4.8
				c-7.1,6.4-13,13.7-17.4,19.4c-1.1,1.4-2.2,2.8-3.2,4.2c0.1-0.3,0.2-0.5,0.2-0.8c2.7-9.6-2-18.1-11.7-21.3
				c-1.6-0.5-3.1-0.8-4.6-0.8c-3,0-5.8,1.1-8,3.1c-0.4,0.4-0.8,0.8-1.2,1.1c-1.7,1.5-3.6,3.3-5.3,5.5c-3.3,4.4-6.7,8.8-10,13.2
				c0-0.4,0-0.7,0.1-1.1c0.3-6.4-1.5-11.8-5.5-16c-3-3.2-6.3-4.8-9.9-4.8c-3.7,0-7.1,1.7-10.1,5.1c-7.5,8.4-16.1,16.1-25.5,23.1
				l0.7-5.4l-11.7,5.8c-0.2,0.1-0.3,0.2-0.5,0.2c-0.6,0.3-1.5,0.7-2.4,1.5c-1,0.8-2,1.6-2.9,2.5c-3.2,2.6-6.4,5.4-9.6,8.3
				c-2.5,2.3-3.7,5.4-4.3,7.6c-1.4,5.1,0,10.4,3.7,14c2.2,2.1,4.9,3.2,7.9,3.2c2.4,0,4.6-0.8,6-1.3l0.8-0.3c2.6-1.1,5.3-2.2,8-3.6
				c8.9-4.9,17.6-10.5,26.1-16.9c-0.8,3.3-1.8,6.6-2.9,9.9c-5.1,14.8-12.2,28.7-20.3,44.1c-1.1,2.1-2.3,4.4-3.3,6.8
				c-1.6,3.8-1.4,7.8,0.8,11.3c3,4.9,7.6,7.8,12.6,7.8c5.1,0,9.7-2.9,12.6-8.1c0.1-0.2,0.2-0.3,0.2-0.5c8-14.4,16.9-29.1,27.5-45
				c-1,2.7-2,5.5-3.1,8.5c-0.8,2.3-1.7,4.7-2.6,6.9c-1.4,3.6-2.7,7.3-4,11c-2.4,6.8-0.5,12.4,5.5,16.6c2.1,1.4,4.3,2.6,6.6,3.5
				c1.7,0.7,3.4,1,5.1,1c2.8,0,6.9-0.9,10.4-5.3c1.1-1.4,2.3-3,3.2-4.8c3.3-6.8,7-13.4,10.8-19.9c-0.9,2.9-1.7,5.9-2.5,8.9l-0.1,0.3
				c-3,11.1-6.2,22.5-4.8,35c0.5,4.9,1.4,9.5,2.7,13.5c2.2,7,6.6,8,9,8c4.8,0,7.7-4.1,8.7-5.4c5.5-7.6,11-15.4,16.3-22.9l1-1.4
				c0.6-0.8,1.4-2.1,2-3.7c0.8-2.5,1.5-7.4-2.9-12.3c-1-1.1-2.2-2-3.6-2.5c0-0.1,0-0.2,0-0.2c0.9-4.9,1.8-9.5,3.1-14
				c4.8-16.7,11.1-32.8,19.1-51.8c1.4-3.2,2.8-6.5,4.2-9.7c1.5-3.5,3.1-7.1,4.7-10.8c1.8-4.3,1.7-9.3-0.3-13.9
				c-2-4.7-5.7-8.4-10.1-10.2c-1.1-0.5-2.4-0.7-3.6-0.8C164.6,110.6,164.3,110.5,164,110.5L164,110.5z M33.5,145L33.5,145L33.5,145
				L33.5,145z"/>
		</g>
	</g>
	<path class="st0" d="M204.6,248.2v4.1c0,11.1-2.7,25.8-16.7,25.8c-14,0-18.6-15.1-18.6-26.6c0-12,3.9-27.2,18.6-27.2
		c7.9,0,13.1,5,15.3,12.4l-10,3.9c-0.5-2.6-1.3-6.7-5.3-6.7c-7-0.4-7.7,12.4-7.7,17.3c0,5.4,0.3,17.3,7.9,17.3
		c5.3,0,6.1-7.1,6.1-10.6h-6.6v-9.7H204.6z M250,251.2c0,19.6-9.1,26.9-18.3,26.9c-9.2,0-18.3-7.3-18.3-26.9s9.1-26.9,18.3-26.9
		C240.9,224.3,250,231.6,250,251.2z M231.7,268.5c6.8,0,7.3-13.2,7.3-17.3c0-4.6-0.5-17.3-7.3-17.3c-6.8,0-7.3,12.7-7.3,17.3
		C224.4,255.3,224.9,268.5,231.7,268.5z M271,225.1v42.4h10.8v9.7h-21.1v-52.1H271z M291.6,277.3v-52.1h7.8
		c1.8,0,23.4-2.6,23.4,26.5c0,14.9-5.7,25.6-22,25.6H291.6z M312.5,251.5c0-6.6-2.1-17.1-10.6-17.1V268
		C310.2,268.4,312.5,258,312.5,251.5z"/>
	<path class="st3" d="M142.7,70.5l3.4,7.6l3.9-1.7l-3.4-7.6l2.6-1.2l8.7,19.4l-2.6,1.2l-4.3-9.6l-3.9,1.7l4.3,9.6l-2.6,1.2
		l-8.7-19.4L142.7,70.5z M163.1,62.7l0.8,2.3l-4.5,1.5l2.1,6.3l4-1.3l0.8,2.3l-4,1.3l2.3,6.8l4.5-1.5l0.8,2.3l-7.2,2.4l-6.7-20.1
		L163.1,62.7z M173.9,59.9l9.2,19.7l-2.8,0.6l-1.7-3.9l-4.1,1l0.2,4.2l-2.7,0.6l-0.3-21.7L173.9,59.9z M176.5,71.5l-2.8-7.3l-0.1,0
		l0.8,10.9l3.3-0.8L176.5,71.5z M186.5,57.7l2.5,18.6l4.7-0.6l0.3,2.4l-7.5,1l-2.8-21L186.5,57.7z M200.4,77.7l-2.8,0.2l-1.3-21.2
		l2.8-0.2L200.4,77.7z M208.3,62.6l0.2,7.1l-0.2,7.8l-2.8-0.1l0.6-21.2l2.7,0.1l4.5,16.3l0.1-0.1L213,64l0.2-7.6l2.8,0.1l-0.6,21.2
		l-2.6-0.1l-4.5-16.5l-0.1,0.1L208.3,62.6z M232,68.5l0,0.3c-0.6,4-1,11.1-6.6,10.3c-5-0.7-4.9-5.6-4-11.5c0.8-5.9,2-10.8,6.9-10.1
		c3,0.4,4.2,2.1,4.5,5l-2.8,0.7c-0.1-1.4-0.3-2.9-2-3.1c-2.3-0.3-2.9,2.8-3.6,7.8c-1,7.3,0.1,8.3,1.3,8.5c1.1,0.2,2.4,0.2,3.1-4.8
		l0.2-1.1l-2.3-0.3l0.3-2.4L232,68.5z M255.7,64.4l-0.7,2.3l-4.6-1.4l-2,6.4l4.1,1.3l-0.7,2.3l-4.1-1.3l-2.9,9.2l-2.7-0.8l6.3-20.3
		L255.7,64.4z M261.2,66.3l3.1,1.3c1.9,0.8,4.8,2.2,2.7,7.1c-0.8,1.8-2.5,4.4-4.8,3.9l-0.5,11l-2.7-1.1l0.6-11.1l-0.1,0l-4.1,9.6
		l-2.6-1.1L261.2,66.3z M264,74.1c0.8-1.9,1.2-3.5-0.8-4.3l-0.4-0.2l-2.7,6.5C262,77.1,263.2,76.1,264,74.1z M279.4,87
		c-1.8,3.4-5.3,9.5-10.1,6.9c-4.8-2.6-1.4-8.9,0.4-12.2c1.8-3.4,5.3-9.5,10.1-6.9C284.6,77.4,281.2,83.6,279.4,87z M272.3,83.1
		c-2.2,4-3.7,7.4-1.7,8.5c2,1.1,4-2.1,6.2-6c2.2-4,3.7-7.4,1.7-8.5C276.5,76,274.5,79.1,272.3,83.1z M293,83.2l-6.5,14.2l0,0
		l0.6-0.7l3.7-3.6l7-6.5l2,1.5l-10.8,18.4l-2.2-1.6l4.2-6.7l2.2-3.3l1.6-2.3l0,0l-2.2,2.2l-8.6,8.1l-1.6-1.1l6.4-13.5l0,0l-9.2,11.4
		l-2.2-1.6L291,81.8L293,83.2z M317.3,104.1l-1.7,1.7l-2.2-2.3L300,116.9l-2-2l13.3-13.3l-2.3-2.4l1.7-1.7L317.3,104.1z
		 M319.1,122.7c-3,2.4-8.5,6.9-11.9,2.6c-3.5-4.2,2-8.8,4.9-11.2c3-2.4,8.5-6.9,11.9-2.6C327.5,115.7,322.1,120.3,319.1,122.7z
		 M314,116.4c-3.5,2.9-6.2,5.5-4.8,7.2c1.4,1.7,4.5-0.4,8-3.3c3.5-2.9,6.2-5.5,4.8-7.2C320.6,111.5,317.5,113.6,314,116.4z
		 M313.5,133.1l17.8-11.6l1.9,2.8c1.3,2,2.8,4.7-1.7,7.7c-3.6,2.4-6.2,2-8.5-1.7l-7.9,5.2L313.5,133.1z M330.8,125.1l-5.9,3.9
		c1.2,2.1,2.7,2,4.6,0.7c1.6-1,2.6-2.4,1.5-4.2L330.8,125.1z M239.5,313.9l0.6,2.4l-3.1,0.7l4.3,18.3l-2.7,0.6l-4.3-18.3l-3.2,0.8
		l-0.6-2.4L239.5,313.9z M255.2,319.8c1.3,3.6,3.5,10.3-1.6,12.1c-5.2,1.8-7.5-4.9-8.8-8.5c-1.3-3.6-3.5-10.3,1.6-12.1
		C251.6,309.5,254,316.2,255.2,319.8z M247.6,322.5c1.5,4.3,3,7.7,5.1,7c2.1-0.7,1.2-4.4-0.3-8.6c-1.5-4.3-3-7.7-5.1-7
		C245.2,314.6,246.1,318.2,247.6,322.5z M268,301.6l1.2,2.1l-2.8,1.5l9.1,16.4L273,323l-9.1-16.4l-2.9,1.6l-1.2-2.1L268,301.6z
		 M284.8,302.9c2.2,3.1,6.2,9,1.7,12.1c-4.5,3.1-8.6-2.6-10.8-5.8c-2.2-3.1-6.2-9-1.7-12.1C278.5,294,282.6,299.8,284.8,302.9z
		 M278.2,307.6c2.6,3.7,5,6.6,6.8,5.3c1.8-1.3-0.1-4.5-2.7-8.2c-2.6-3.7-5-6.6-6.8-5.3C273.7,300.6,275.6,303.9,278.2,307.6z
		 M287.5,286.6l1.6,1.8l-3.6,3.2l4.4,5l3.2-2.8l1.6,1.8l-3.2,2.8l4.8,5.4l3.6-3.2l1.6,1.8l-5.7,5l-14.1-15.9L287.5,286.6z"/>
</g>
</svg>
