<svg xmlns="http://www.w3.org/2000/svg" xmlns:xlink="http://www.w3.org/1999/xlink" width="360" height="56" viewBox="0 0 360 56"><defs><style>.a,.c{fill:none;}.b,.i{fill:#fff;}.c{stroke:#0087cd;stroke-linecap:round;stroke-width:2px;}.d{clip-path:url(#a);}.e{fill:#dc0e32;}.f{fill:#ca9e67;}.g{clip-path:url(#b);}.h{fill:#0087cd;}.i{font-size:16px;font-family:Josefin Sans;}</style><clipPath id="a"><rect class="a" width="96" height="41.738"/></clipPath><clipPath id="b"><rect width="29.182" height="25"/></clipPath></defs><rect class="b" width="360" height="56"/><g transform="translate(-466 -404)"><rect class="b" width="24" height="24" transform="translate(501 420)"/><g transform="translate(-4 -4)"><g transform="translate(508 429.049)"><line class="c" x2="18" transform="translate(0 -0.049)"/><line class="c" x2="18" transform="translate(0 6.951)"/><line class="c" x2="18" transform="translate(0 13.951)"/></g></g></g><g transform="translate(132 7)"><g class="d"><path class="e" d="M146.574,30.628a5.046,5.046,0,0,1-4.906-4.4,10.048,10.048,0,0,1,.85-5.889,8.291,8.291,0,0,1,3.339-4.181,5.49,5.49,0,0,1,4.175-.7,2.951,2.951,0,0,1,1.9,1.309,2.557,2.557,0,0,1,.372,1.4,3.964,3.964,0,0,1,1.067,1.565c.057-.008.113-.015.169-.026.118-.022.313-.058.435-.089.032-.113.07-.293.1-.424A28.215,28.215,0,0,1,160.1,6.7a9.535,9.535,0,0,1,3.733-2.883,4.431,4.431,0,0,1,1.09-.283,4.487,4.487,0,0,1,.516-.032,2.492,2.492,0,0,1,2.6,2.4,8.088,8.088,0,0,1-.356,3.675,18.965,18.965,0,0,1-2.506,5.108,38.746,38.746,0,0,1-4.659,5.92,11.276,11.276,0,0,1-1.013.875c-.217.172-.421.335-.613.505l0,0a3.944,3.944,0,0,0,.231,1.035.6.6,0,0,0,.589.42,1.07,1.07,0,0,0,.329-.057,6.622,6.622,0,0,0,2.615-1.958,43.633,43.633,0,0,0,4.1-5.329c.345-.5.689-1,1.039-1.492a8.544,8.544,0,0,1,1.093-1.277,2.223,2.223,0,0,1,1.577-.612,3.39,3.39,0,0,1,.865.121,1.409,1.409,0,0,1,1.07,1.748,1.1,1.1,0,0,1-.139.447c-.221.38-.168.734.229,1.514.126.248.258.492.39.737s.256.475.379.715c.319.622.633,1.246.956,1.888a4.708,4.708,0,0,0,1.081-1.117A2.7,2.7,0,0,0,175.56,18c.035-.14.069-.279.108-.414a8.848,8.848,0,0,1,3.817-5.366,5.1,5.1,0,0,1,2.658-.876,3.864,3.864,0,0,1,.92.112,2.255,2.255,0,0,1,1.757,1.926,1.707,1.707,0,0,1-.062.707l.114.037a4.059,4.059,0,0,1,1.06.559,1.492,1.492,0,0,0,.827.338c.092,0,.373,0,.754-.421a21.259,21.259,0,0,0,1.911-2.514,1.9,1.9,0,0,1,1.523-1.037,2.369,2.369,0,0,1,1.064.316c.157.082.3.172.426.251a2.631,2.631,0,0,1,.951.951c.061-.072.124-.143.187-.214a25.355,25.355,0,0,1,2.34-2.284,2.7,2.7,0,0,1,1.787-.7,3.18,3.18,0,0,1,1.667.517c2.075,1.276,2.057,2.29,1.232,4.081-.457.993-.84,2.06-1.21,3.093l-.146.407a1.527,1.527,0,0,1,.684-.167,1.577,1.577,0,0,1,.943.329,1.878,1.878,0,0,1,.851,2.334,5.345,5.345,0,0,1-.845,1.464c-.532.633-1.1,1.235-1.654,1.818l-.4.424a1.549,1.549,0,0,1-1.129.511,1.645,1.645,0,0,1-1.071-.418,5.651,5.651,0,0,1-2.122-3.583,7.02,7.02,0,0,1,.342-3.008,16.613,16.613,0,0,0-1.925,3.025c-.458.911-.884,1.868-1.3,2.793q-.21.472-.422.942a1.654,1.654,0,0,1-1.442,1.135,2.028,2.028,0,0,1-1.022-.324,7.253,7.253,0,0,1-.99-.721,2.189,2.189,0,0,1-.735-2.312c.129-.523.527-2.12.595-2.4-.173.056-.351.1-.534.144l-.054.013c-.005.021-.011.049-.018.083a8.967,8.967,0,0,1-3.741,5.788,5.084,5.084,0,0,1-3.026.953,6.571,6.571,0,0,1-1.094-.1,4.015,4.015,0,0,1-2.885-2.373c-.046-.089-.091-.178-.135-.268q-.444.4-.884.8c-.648.59-1.318,1.2-2,1.785a5.21,5.21,0,0,1-3.391,1.427,4.522,4.522,0,0,1-1.737-.359,5.255,5.255,0,0,1-1.556-1.138,1.634,1.634,0,0,1-.267-2c.08-.153.159-.307.237-.461.138-.271.279-.548.434-.824q-.293.4-.591.786a20.46,20.46,0,0,1-3.787,4.007A5.688,5.688,0,0,1,159.11,28.9a4.909,4.909,0,0,1-1.536-.252,5.124,5.124,0,0,1-3.157-3.4,10.16,10.16,0,0,1-.373-1.324c-.222.047-.445.1-.668.149a9.345,9.345,0,0,1-3.36,5.256,5.429,5.429,0,0,1-3.441,1.3m1.236-10.464a5.474,5.474,0,0,0-1.477,4.235c.022.28.135.931.715.931a1.387,1.387,0,0,0,.766-.288A3.907,3.907,0,0,0,149.23,22.9c-.047-.035-.109-.074-.17-.113a3.218,3.218,0,0,1-.444-.322,2.162,2.162,0,0,1-.811-2.279ZM168.457,21.6a1.5,1.5,0,0,1,1.312.9,1.052,1.052,0,0,0,.192.271.468.468,0,0,0,.085-.016c.143-.037.147-.221.136-.328a4.158,4.158,0,0,0-.255-1.07c-.214-.551-.455-1.094-.721-1.669l-.282.4c-.431.606-.869,1.223-1.316,1.838a1.324,1.324,0,0,1,.849-.32m13.512-6.079a2.925,2.925,0,0,0-1.145,1.327,6.637,6.637,0,0,0-.686,3.08,2.926,2.926,0,0,0,.223,1,.544.544,0,0,0,.516.338.663.663,0,0,0,.219-.038,2.064,2.064,0,0,0,.655-.36,4.611,4.611,0,0,0,1.228-1.786,3.673,3.673,0,0,1-1.089-.982,2.146,2.146,0,0,1-.283-1.688,4.383,4.383,0,0,1,.361-.887m-19.476-4.807a4.467,4.467,0,0,0-.554.568,14.3,14.3,0,0,0-2.156,3.8,21.811,21.811,0,0,0,2.416-3.652,4.679,4.679,0,0,0,.294-.714" transform="translate(-106.714 -2.638)"/><path class="b" d="M162.8,1.722c1.027,0,1.555.537,1.749,1.682a7.167,7.167,0,0,1-.332,3.286,18.327,18.327,0,0,1-2.4,4.878,37.439,37.439,0,0,1-4.552,5.789c-.486.49-1.069.883-1.587,1.343-.147.13-.331.349-.314.508a5.41,5.41,0,0,0,.319,1.508,1.456,1.456,0,0,0,1.383.949,1.933,1.933,0,0,0,.595-.1,7.365,7.365,0,0,0,2.973-2.183,59.783,59.783,0,0,0,5.223-6.918,7.657,7.657,0,0,1,.981-1.148,1.38,1.38,0,0,1,.986-.376,2.584,2.584,0,0,1,.647.093.568.568,0,0,1,.441.76.594.594,0,0,1-.036.169,2.283,2.283,0,0,0,.2,2.338c.248.489.52.966.769,1.454.459.9.909,1.8,1.39,2.749a6.368,6.368,0,0,0,2.129-1.891,5.081,5.081,0,0,0,.482-1.422,8.043,8.043,0,0,1,3.445-4.874,4.2,4.2,0,0,1,2.2-.747,2.99,2.99,0,0,1,.715.087,1.4,1.4,0,0,1,1.106,1.185.577.577,0,0,1-.5.723c-.268.05-.548.051-.811.118a3.766,3.766,0,0,0-2.608,2.166,7.533,7.533,0,0,0-.764,3.475,3.792,3.792,0,0,0,.29,1.3,1.407,1.407,0,0,0,1.309.863,1.53,1.53,0,0,0,.5-.086,2.918,2.918,0,0,0,.934-.522,5.63,5.63,0,0,0,1.561-2.361c.132-.353.012-.535-.306-.725a3.145,3.145,0,0,1-.972-.827A1.288,1.288,0,0,1,179.8,14a4.568,4.568,0,0,1,.652-1.3,1.022,1.022,0,0,1,.889-.505,1.921,1.921,0,0,1,.615.118,3.252,3.252,0,0,1,.835.442,2.306,2.306,0,0,0,1.331.5,1.867,1.867,0,0,0,1.392-.7A22.488,22.488,0,0,0,187.5,9.932c.3-.441.5-.655.808-.655a1.535,1.535,0,0,1,.668.219c.128.066.251.144.373.222a1.374,1.374,0,0,1,.716,1.687c-.079.377-.182.749-.3,1.232.646-.843,1.181-1.636,1.814-2.341a24.438,24.438,0,0,1,2.26-2.206,1.857,1.857,0,0,1,1.227-.491,2.335,2.335,0,0,1,1.216.389c1.581.972,1.615,1.438.9,2.987-.6,1.3-1.057,2.677-1.551,4.028a2.276,2.276,0,0,0-.077.814c.007.3.1.451.288.451a.759.759,0,0,0,.336-.106,2.678,2.678,0,0,0,.465-.316,1.062,1.062,0,0,1,.648-.316.727.727,0,0,1,.433.162c.537.394.765.81.561,1.321a4.539,4.539,0,0,1-.7,1.229c-.641.763-1.339,1.479-2.022,2.205a.683.683,0,0,1-.5.24.8.8,0,0,1-.513-.213,4.833,4.833,0,0,1-1.827-3.046,7.205,7.205,0,0,1,.495-3.219c.211-.658.442-1.31.66-1.966a2.132,2.132,0,0,0,.055-.279l-.1-.107a9.377,9.377,0,0,0-.93.681,16.2,16.2,0,0,0-3.383,4.639c-.621,1.235-1.164,2.508-1.733,3.768-.191.424-.381.628-.657.628a1.248,1.248,0,0,1-.591-.208,6.377,6.377,0,0,1-.87-.638,1.337,1.337,0,0,1-.451-1.444c.286-1.159.577-2.316.862-3.475.04-.162.055-.331.082-.5a14.575,14.575,0,0,1-1.9.674.8.8,0,0,0-.739.78,8.107,8.107,0,0,1-3.4,5.247,4.229,4.229,0,0,1-2.525.791,5.7,5.7,0,0,1-.95-.083,3.252,3.252,0,0,1-2.266-1.924c-.2-.381-.366-.78-.585-1.251-.267.219-.5.4-.719.592-1.013.908-2,1.84-3.036,2.726a4.374,4.374,0,0,1-2.83,1.218,3.649,3.649,0,0,1-1.407-.294,4.567,4.567,0,0,1-1.293-.968.782.782,0,0,1-.1-.969c.289-.548.553-1.114.881-1.638.165-.263.346-.391.525-.391.2,0,.392.155.56.456.273.491.555.714.932.714a1.257,1.257,0,0,0,.315-.045A1.093,1.093,0,0,0,168.4,19.7a5.017,5.017,0,0,0-.309-1.3c-.292-.752-.632-1.486-.974-2.217-.171-.366-.3-.542-.437-.542s-.283.158-.5.464c-1.033,1.447-2.052,2.906-3.132,4.318a19.505,19.505,0,0,1-3.622,3.842,4.911,4.911,0,0,1-2.954,1.132,4.029,4.029,0,0,1-1.267-.209,4.317,4.317,0,0,1-2.62-2.88,19.45,19.45,0,0,1-.532-2.041c-.607.131-1.254.26-1.892.422-.094.024-.191.2-.214.319a8.436,8.436,0,0,1-3.114,5.016,4.582,4.582,0,0,1-2.9,1.1,4.2,4.2,0,0,1-4.059-3.7,9.29,9.29,0,0,1,.8-5.4,7.543,7.543,0,0,1,2.988-3.776,4.781,4.781,0,0,1,2.484-.722,4.7,4.7,0,0,1,1.056.122,1.849,1.849,0,0,1,1.546,2.264,3.051,3.051,0,0,1,1.291,1.766c.069.2.159.325.345.325A.566.566,0,0,0,150.5,18c.183-.041.371-.054.555-.088.989-.183,1.012-.22,1.218-1.179a27.225,27.225,0,0,1,5.843-12.117,8.661,8.661,0,0,1,3.39-2.638,3.4,3.4,0,0,1,1.292-.256m-7.493,13.837a1.1,1.1,0,0,0,.181-.08,3.475,3.475,0,0,0,.332-.278,25.188,25.188,0,0,0,4.5-6.016,6.549,6.549,0,0,0,.594-1.833c.078-.431-.087-.69-.376-.69a.813.813,0,0,0-.425.147A6.174,6.174,0,0,0,158.626,8.1a17.239,17.239,0,0,0-3.032,6.261c-.107.378-.184.764-.286,1.2m-10.9,7.994a2.22,2.22,0,0,0,1.26-.444,5.013,5.013,0,0,0,1.837-2.9c.041-.141-.123-.39-.258-.521-.2-.2-.485-.315-.7-.506a1.358,1.358,0,0,1-.555-1.409c.124-.452.322-.884.489-1.327a1.5,1.5,0,0,0-.655-.152,1.681,1.681,0,0,0-1.234.585,6.335,6.335,0,0,0-1.758,4.947,1.64,1.64,0,0,0,1.573,1.724M162.8,0a5.338,5.338,0,0,0-.616.037,5.288,5.288,0,0,0-1.3.337A10.337,10.337,0,0,0,156.806,3.5,28.865,28.865,0,0,0,150.8,15.476a4.367,4.367,0,0,0-.286-.33,3.4,3.4,0,0,0-.484-1.463,3.8,3.8,0,0,0-2.444-1.7,6.352,6.352,0,0,0-4.811.8,9.106,9.106,0,0,0-3.691,4.587,10.862,10.862,0,0,0-.9,6.38,5.886,5.886,0,0,0,5.752,5.1,6.28,6.28,0,0,0,3.986-1.49,10.5,10.5,0,0,0,3.162-4.16,5.661,5.661,0,0,0,5.388,3.921,6.6,6.6,0,0,0,3.992-1.481,16.525,16.525,0,0,0,2.372-2.231,2.4,2.4,0,0,0,.49.657,6.017,6.017,0,0,0,1.819,1.309,5.379,5.379,0,0,0,2.066.425,6.041,6.041,0,0,0,3.952-1.635c.69-.593,1.364-1.208,2.017-1.8l.086-.078a4.6,4.6,0,0,0,3.094,2.13,7.423,7.423,0,0,0,1.238.107,5.929,5.929,0,0,0,3.528-1.114,10.411,10.411,0,0,0,2.539-2.554,3.116,3.116,0,0,0,.895,1.195,7.977,7.977,0,0,0,1.11.806,2.9,2.9,0,0,0,1.454.44,2.391,2.391,0,0,0,2.226-1.642q.214-.475.426-.951c.426-.957.828-1.861,1.276-2.752l.005-.01a6.54,6.54,0,0,0,2.372,3.845,2.5,2.5,0,0,0,1.629.624,2.4,2.4,0,0,0,1.755-.782l.392-.415c.562-.594,1.144-1.208,1.694-1.863a6.214,6.214,0,0,0,.986-1.7,2.742,2.742,0,0,0-1.142-3.348,2.57,2.57,0,0,0-.877-.422c.276-.756.556-1.483.88-2.186a4.182,4.182,0,0,0,.508-2.88,4.091,4.091,0,0,0-2.071-2.294,4.024,4.024,0,0,0-2.118-.644,3.584,3.584,0,0,0-2.348.905,26.2,26.2,0,0,0-1.945,1.849,4.3,4.3,0,0,0-.5-.369c-.142-.09-.309-.2-.5-.3a3.165,3.165,0,0,0-1.461-.412,2.71,2.71,0,0,0-2.238,1.419,20.462,20.462,0,0,1-1.833,2.415.874.874,0,0,1-.142.131,1.247,1.247,0,0,1-.3-.168,5.2,5.2,0,0,0-.744-.45q0-.124-.016-.25a3.107,3.107,0,0,0-2.407-2.668,4.724,4.724,0,0,0-1.125-.137,5.911,5.911,0,0,0-3.111,1.006,9.669,9.669,0,0,0-4.191,5.859c-.046.158-.083.312-.117.448a3.527,3.527,0,0,1-.146.5q-.055.082-.117.163-.217-.429-.434-.853c-.129-.252-.261-.5-.388-.734s-.26-.482-.379-.716a2.031,2.031,0,0,1-.266-.668s.006-.011.014-.025a1.934,1.934,0,0,0,.245-.745,2.268,2.268,0,0,0-1.7-2.715,4.245,4.245,0,0,0-1.083-.149,3.1,3.1,0,0,0-2.168.846,9.381,9.381,0,0,0-1.2,1.406c-.353.5-.7,1.008-1.045,1.5a42.35,42.35,0,0,1-4.021,5.225,6.142,6.142,0,0,1-2.168,1.7c-.018-.062-.034-.13-.048-.2l.229-.183a12.142,12.142,0,0,0,1.089-.943,39.518,39.518,0,0,0,4.765-6.051,19.793,19.793,0,0,0,2.614-5.338,8.892,8.892,0,0,0,.379-4.065A3.35,3.35,0,0,0,162.8,0m15.617,17.66a2.056,2.056,0,0,1-.06-.408,4.967,4.967,0,0,1,.141-1.37l.045.066a3.919,3.919,0,0,0,.705.761,3.34,3.34,0,0,1-.7.863.826.826,0,0,1-.129.088m-33.859,4.112c0-.023-.006-.049-.009-.078a4.628,4.628,0,0,1,.232-1.913,4.049,4.049,0,0,0,.617.686c.049.044.1.084.145.122a2.581,2.581,0,0,1-.865,1.11,1.118,1.118,0,0,1-.12.074" transform="translate(-104.071 0)"/><path class="e" d="M31.2,42.215c-.646,0-1.118-.462-1.4-1.373a16.316,16.316,0,0,1-.628-3.165,22.359,22.359,0,0,1,1.166-8.286l.021-.077c.89-3.256,1.976-6.451,3.073-9.438l-.387.633q-.253.414-.506.827l-.591.959a104.9,104.9,0,0,0-5.227,9.139,5.453,5.453,0,0,1-.683,1.022,2.36,2.36,0,0,1-1.878.975,2.651,2.651,0,0,1-.951-.187,6.874,6.874,0,0,1-1.434-.763A2.378,2.378,0,0,1,20.752,29.4c.314-.9.655-1.8.985-2.674.216-.571.433-1.142.643-1.716,1.17-3.2,2.148-5.887,3.032-8.336-.164.215-.323.432-.477.65a167.368,167.368,0,0,0-10.14,15.986c-.012.028-.026.055-.04.081a2.73,2.73,0,0,1-2.349,1.545,2.84,2.84,0,0,1-2.374-1.5,2.126,2.126,0,0,1-.126-1.987c.242-.572.534-1.127.791-1.617a80.142,80.142,0,0,0,5.046-10.959,27.757,27.757,0,0,0,1.208-4.818,56.3,56.3,0,0,1-8.14,5.488,17.784,17.784,0,0,1-1.871.854l-.185.076a3.038,3.038,0,0,1-1.136.261,1.878,1.878,0,0,1-1.337-.548,2.587,2.587,0,0,1-.686-2.6,3.111,3.111,0,0,1,.812-1.453c.76-.7,1.559-1.365,2.331-2.01q.362-.3.723-.606a1.538,1.538,0,0,1,.391-.23c.04-.018.088-.039.146-.068l1.44-.717-.211,1.666A43.79,43.79,0,0,0,17.237,7.21a2.493,2.493,0,0,1,1.847-.959,2.5,2.5,0,0,1,1.815.911,4.259,4.259,0,0,1,1.118,3.3,26.879,26.879,0,0,1-.42,3.446c1.444-1.939,2.923-3.919,4.409-5.857a9.322,9.322,0,0,1,1.2-1.227c.1-.095.209-.189.312-.285A2,2,0,0,1,28.9,6a2.739,2.739,0,0,1,.856.148,3.249,3.249,0,0,1,2.306,4.177c-.494,1.758-1.021,3.533-1.533,5.256,1.248-1.925,2.5-3.689,3.777-5.331a37.086,37.086,0,0,1,4.183-4.658,2.966,2.966,0,0,1,2-.95c.053,0,.106,0,.16.005a2.1,2.1,0,0,1,.636.141,3.744,3.744,0,0,1,2.01,2.045,3.6,3.6,0,0,1,.061,2.758c-.368.885-.759,1.773-1.137,2.632-.348.79-.707,1.607-1.045,2.413a114.8,114.8,0,0,0-4.722,12.846c-.327,1.139-.559,2.346-.783,3.513q-.093.484-.188.967a1.375,1.375,0,0,1,.263-.026,1.3,1.3,0,0,1,.991.464,2.145,2.145,0,0,1,.539,2.191,2.6,2.6,0,0,1-.363.684l-.294.413c-1.3,1.823-2.64,3.709-3.97,5.557a1.93,1.93,0,0,1-1.443.969" transform="translate(-2.633 -3.5)"/><path class="b" d="M37.85,2.864c.033,0,.067,0,.1,0a1.26,1.26,0,0,1,.375.081,2.961,2.961,0,0,1,1.6,3.673c-.7,1.691-1.473,3.354-2.181,5.043a117.22,117.22,0,0,0-4.755,12.941c-.432,1.506-.692,3.062-1,4.6a2.218,2.218,0,0,0,.068.9.33.33,0,0,0,.319.3.5.5,0,0,0,.218-.057,1.261,1.261,0,0,1,.512-.183.456.456,0,0,1,.349.176,1.318,1.318,0,0,1,.364,1.35,1.746,1.746,0,0,1-.247.454q-2.126,2.986-4.261,5.966c-.29.4-.535.611-.744.611-.231,0-.42-.251-.582-.77a15.451,15.451,0,0,1-.594-3c-.29-2.771.442-5.414,1.162-8.046a144.3,144.3,0,0,1,4.862-14.14c.074-.191.113-.4.169-.594l-.129-.075c-.16.171-.326.337-.479.514a43.443,43.443,0,0,0-3.806,5.638c-2.052,3.333-4.146,6.644-5.86,10.172a4.676,4.676,0,0,1-.58.86,1.524,1.524,0,0,1-1.206.653,1.785,1.785,0,0,1-.642-.13,6.063,6.063,0,0,1-1.253-.667,1.539,1.539,0,0,1-.7-2.094c.511-1.47,1.089-2.916,1.623-4.377q1.775-4.853,3.529-9.713a9.446,9.446,0,0,0,.354-1.38,2.292,2.292,0,0,0-.041-.6,1.916,1.916,0,0,0-.518.324c-.775.953-1.574,1.892-2.281,2.895a170.294,170.294,0,0,0-10.211,16.1c-.007.013-.011.027-.017.04a1.886,1.886,0,0,1-1.6,1.1,1.993,1.993,0,0,1-1.64-1.091,1.266,1.266,0,0,1-.067-1.2c.224-.53.492-1.042.761-1.552a81.263,81.263,0,0,0,5.1-11.077,28.053,28.053,0,0,0,1.439-6.489c.018-.182,0-.367,0-.6a57.166,57.166,0,0,1-9.6,6.721,19.056,19.056,0,0,1-1.969.888,2.179,2.179,0,0,1-.808.2,1.009,1.009,0,0,1-.735-.3,1.73,1.73,0,0,1-.458-1.761,2.274,2.274,0,0,1,.565-1.047c.978-.9,2.011-1.735,3.027-2.592a2.3,2.3,0,0,1,.366-.185c-.053.414-.092.745-.138,1.075-.041.3,0,.442.167.442a.808.808,0,0,0,.3-.084,6.2,6.2,0,0,0,.989-.535,44.427,44.427,0,0,0,8.178-7.094,1.677,1.677,0,0,1,1.206-.674,1.682,1.682,0,0,1,1.188.64,3.445,3.445,0,0,1,.885,2.671,39.332,39.332,0,0,1-1.1,6.651.94.94,0,0,0,0,.484c.482-.693.945-1.4,1.448-2.078,1.717-2.309,3.435-4.618,5.186-6.9a12.017,12.017,0,0,1,1.412-1.4,1.126,1.126,0,0,1,.8-.31,1.917,1.917,0,0,1,.589.1A2.41,2.41,0,0,1,28.6,7.453c-.744,2.649-1.547,5.281-2.323,7.921q-.384,1.306-.759,2.615c-.034.119-.054.243-.08.365l.113.056c.148-.236.3-.467.443-.708A84.105,84.105,0,0,1,32.349,8.14a35.716,35.716,0,0,1,4.083-4.55,2.135,2.135,0,0,1,1.418-.726M5.75,11.341h0m32.1-10.2a3.764,3.764,0,0,0-2.577,1.175A37.894,37.894,0,0,0,30.99,7.082q-.4.511-.792,1.037l.056-.2a4.1,4.1,0,0,0-2.868-5.228A3.587,3.587,0,0,0,26.264,2.5a2.842,2.842,0,0,0-1.968.771c-.1.093-.2.185-.3.277a10.175,10.175,0,0,0-1.3,1.341c-.824,1.074-1.646,2.162-2.461,3.248.006-.09.011-.18.015-.27a5.145,5.145,0,0,0-1.35-3.936A3.325,3.325,0,0,0,16.451,2.75,3.313,3.313,0,0,0,13.964,4,42.329,42.329,0,0,1,7.7,9.682l.168-1.317L4.983,9.8c-.045.023-.083.039-.114.053a2.337,2.337,0,0,0-.594.357q-.362.3-.725.607c-.779.65-1.583,1.322-2.357,2.033a3.962,3.962,0,0,0-1.06,1.859,3.471,3.471,0,0,0,.915,3.448,2.722,2.722,0,0,0,1.939.793,3.864,3.864,0,0,0,1.464-.326l.187-.077a18.561,18.561,0,0,0,1.958-.9A55.821,55.821,0,0,0,13.02,13.5q-.3,1.226-.723,2.442A79.511,79.511,0,0,1,7.3,26.787c-.265.5-.566,1.076-.822,1.682a2.967,2.967,0,0,0,.185,2.773,3.679,3.679,0,0,0,3.109,1.913,3.563,3.563,0,0,0,3.1-1.984c.024-.043.044-.083.061-.119C14.889,27.5,17.087,23.9,19.7,19.987l-.762,2.085c-.208.567-.427,1.146-.639,1.706-.333.877-.676,1.784-.994,2.7a3.24,3.24,0,0,0,1.343,4.077,7.731,7.731,0,0,0,1.614.858,3.5,3.5,0,0,0,1.26.245,3.194,3.194,0,0,0,2.549-1.3,6.28,6.28,0,0,0,.786-1.185c.806-1.66,1.714-3.3,2.66-4.9q-.326,1.084-.627,2.182l-.02.075a23.021,23.021,0,0,0-1.193,8.6,17.189,17.189,0,0,0,.663,3.332c.539,1.72,1.625,1.977,2.225,1.977a2.773,2.773,0,0,0,2.142-1.327c1.345-1.87,2.7-3.776,4.014-5.619l.252-.354a3.429,3.429,0,0,0,.48-.915,3,3,0,0,0-.715-3.034,2.253,2.253,0,0,0-.874-.611l.011-.059c.231-1.2.45-2.336.766-3.438a114.08,114.08,0,0,1,4.688-12.75c.335-.8.692-1.611,1.038-2.4.38-.864.773-1.757,1.145-2.651a4.467,4.467,0,0,0-.062-3.422A4.61,4.61,0,0,0,38.966,1.35a2.962,2.962,0,0,0-.9-.2c-.074-.005-.147-.008-.22-.008M5.752,9.619h0Z" transform="translate(0 -0.861)"/><path class="f" d="M163.354,127.882c-3.466,0-4.7-3.592-4.7-6.668,0-1.6.339-6.8,4.7-6.8a3.97,3.97,0,0,1,3.892,3.131l.032.109-2.71,1.046-.027-.146c-.138-.749-.353-1.548-1.171-1.548l-.08,0c-1.562,0-1.684,3.174-1.684,4.147,0,2.789.6,4.145,1.833,4.145,1.195,0,1.356-1.681,1.371-2.372H163.2v-2.626h4.394v1.126c0,4.168-1.5,6.464-4.237,6.464" transform="translate(-119.631 -86.266)"/><path class="b" d="M162.977,114.155a3.835,3.835,0,0,1,3.774,3.043l-2.465.952c-.119-.646-.323-1.649-1.292-1.649l-.08,0c-1.642,0-1.807,3.082-1.807,4.27,0,1.326.085,4.267,1.955,4.267,1.292,0,1.5-1.734,1.5-2.618h-1.615v-2.38h4.148v1c0,2.72-.663,6.341-4.114,6.341s-4.573-3.706-4.573-6.545c0-2.958.952-6.681,4.573-6.681m0-.246c-4.471,0-4.819,5.3-4.819,6.927,0,3.133,1.262,6.791,4.819,6.791,2.812,0,4.36-2.339,4.36-6.587v-1.249H162.7v2.872h1.61c-.031.716-.222,2.127-1.245,2.127-1.15,0-1.709-1.316-1.709-4.021a10.467,10.467,0,0,1,.279-2.517c.268-1,.7-1.507,1.282-1.507l.066,0h.015c.723,0,.915.715,1.05,1.448l.054.292.277-.107,2.465-.952.212-.082-.065-.218a4.086,4.086,0,0,0-4.01-3.219" transform="translate(-119.254 -85.889)"/><path class="f" d="M207.383,127.881c-2.238,0-4.628-1.77-4.628-6.736s2.391-6.736,4.628-6.736,4.628,1.77,4.628,6.736-2.391,6.736-4.628,6.736m0-10.881c-1.516,0-1.679,2.9-1.679,4.144,0,.972.121,4.144,1.679,4.144s1.679-3.172,1.679-4.144c0-1.246-.164-4.144-1.679-4.144" transform="translate(-152.881 -86.266)"/><path class="b" d="M207.005,114.154c2.261,0,4.505,1.8,4.505,6.614s-2.244,6.613-4.505,6.613-4.505-1.8-4.505-6.613,2.244-6.614,4.505-6.614m0,10.881c1.683,0,1.8-3.247,1.8-4.267,0-1.139-.119-4.267-1.8-4.267s-1.8,3.128-1.8,4.267c0,1.02.119,4.267,1.8,4.267m0-11.127c-2.3,0-4.751,1.8-4.751,6.859s2.454,6.859,4.751,6.859,4.751-1.8,4.751-6.859-2.454-6.859-4.751-6.859m0,10.881c-1.148,0-1.556-2.077-1.556-4.021,0-1.209.152-4.021,1.556-4.021s1.556,2.812,1.556,4.021c0,1.944-.409,4.021-1.556,4.021" transform="translate(-152.503 -85.889)"/><path class="f" d="M250.03,128.3V115.239h2.779v10.439h2.652V128.3Z" transform="translate(-188.527 -86.892)"/><path class="b" d="M252.308,114.984v10.439h2.652v2.38h-5.186V114.984Zm.246-.246h-3.025v13.311h5.678v-2.872h-2.652V114.738Z" transform="translate(-188.149 -86.514)"/><path class="f" d="M280.993,128.257V115.192h2.044l.1,0c.094,0,.234-.011.407-.011,1.612,0,5.362.648,5.362,6.649,0,4.267-1.86,6.431-5.529,6.431Zm2.779-2.521a2.013,2.013,0,0,0,1.854-1.365,6.508,6.508,0,0,0,.5-2.561c0-.671-.116-3.973-2.355-4.09Z" transform="translate(-211.874 -86.845)"/><path class="b" d="M283.169,114.923c1.433,0,5.239.463,5.239,6.526,0,3.656-1.411,6.307-5.406,6.307H280.74V114.938h1.921c.067,0,.249-.015.508-.015m.222,10.559c1.944,0,2.483-2.482,2.483-4.049,0-1.632-.51-4.216-2.6-4.216v8.262c.04,0,.079,0,.118,0m-.222-10.8h0c-.177,0-.32.007-.414.011l-.094,0h-2.167V128H283c3.7,0,5.652-2.266,5.652-6.553,0-6.112-3.836-6.772-5.484-6.772m.35,10.554v-7.755c2,.233,2.109,3.318,2.109,3.956,0,1.378-.448,3.686-2.109,3.8" transform="translate(-211.497 -86.468)"/></g></g><g transform="translate(295 16)"><path d="M0,0V1.164H3.379L4.642,3.176,6.8,16.257h.007L5.477,18.379v1.205H26.513V18.379H6.938l1.489-2.373L27.238,13.1l1.944-9.979H6.067L4.145.054V0Z" transform="translate(0 0)"/><g transform="translate(0 0)"><g class="g"><path d="M18.328,15.222a1.718,1.718,0,1,0,1.718,1.718,1.718,1.718,0,0,0-1.718-1.718" transform="translate(6.919 6.341)"/><path d="M5.45,15.222A1.718,1.718,0,1,0,7.169,16.94,1.718,1.718,0,0,0,5.45,15.222" transform="translate(1.555 6.341)"/></g></g></g><g transform="translate(20.5 3.5)"><line class="c" x1="15" y2="10" transform="translate(70.5 14.5)"/><line class="c" x1="15" y1="10" transform="translate(70.5 25)"/></g><g transform="translate(162 -391)"><path class="h" d="M10,0A10,10,0,1,1,0,10,10,10,0,0,1,10,0Z" transform="translate(111 409)"/><text class="i" transform="translate(121 424)"><tspan x="-4.184" y="0">3</tspan></text></g></svg>