<?xml version="1.0" encoding="utf-8"?>
<!-- Generator: Adobe Illustrator 26.1.0, SVG Export Plug-In . SVG Version: 6.00 Build 0)  -->
<svg version="1.1" id="selos" xmlns="http://www.w3.org/2000/svg" xmlns:xlink="http://www.w3.org/1999/xlink" x="0px" y="0px"
	 viewBox="0 0 170 170" style="enable-background:new 0 0 170 170;" xml:space="preserve">
<style type="text/css">
	.st0{fill:#DBC288;}
	.st1{fill:#FFFFFF;}
	.st2{fill:#EAD69C;}
	.st3{fill:#1E97D5;}
	.st4{fill:#E52942;}
	.st5{fill:#D5313E;}
</style>
<g id="Lager">
	<g>
		<polygon class="st0" points="87.7,20.1 104.3,5.9 113.7,25.7 134.8,19.4 135.3,41.4 157,44.2 148.6,64.4 167.3,75.9 151.4,90.9 
			163.9,109 143.2,116.3 147.2,137.8 125.3,136.1 120.3,157.4 101,146.9 87.7,164.3 74.4,146.9 55.1,157.4 50,136.1 28.2,137.8 
			32.2,116.3 11.5,109 23.9,90.9 8,75.9 26.7,64.4 18.3,44.2 40.1,41.4 40.6,19.4 61.6,25.7 71,5.9 		"/>
		<g>
			<circle class="st1" cx="87.7" cy="85.8" r="59.8"/>
		</g>
		<path class="st2" d="M164.3,81.4c-15.3-9.6-42.9-15.9-74.4-15.9c-34.2,0-63.7,4.8-78,15.8V109c14.3-10.9,43.9-15.8,78-15.8
			c31.5,0,59.1,6.4,74.4,15.9V81.4z"/>
	</g>
	<g>
		<path class="st4" d="M62.2,70.6l1.5,14.7l3.7-0.4l0.4,3.3l-7.3,0.8l-1.9-18L62.2,70.6z"/>
		<path class="st4" d="M75,69.5l5.5,17.8l-3.8,0.2l-0.9-3l-3.6,0.2l-0.5,3.1l-3.5,0.2l3.1-18.3L75,69.5z M73.9,77l-0.6-2.7l0,0
			L73,77.1l-0.5,4.9l2.5-0.2L73.9,77z"/>
		<path class="st4" d="M93,77.1l0,1.4c0.1,3.8-0.8,9-5.7,9c-4.9,0.1-6.5-5.1-6.6-9.1c-0.1-4.2,1.2-9.4,6.3-9.5
			c2.8,0,4.6,1.7,5.4,4.2L89,74.5c-0.2-0.9-0.5-2.3-1.9-2.3c-2.4-0.1-2.6,4.4-2.6,6.1c0,1.9,0.2,6,2.8,6c1.8,0,2.1-2.5,2.1-3.7
			l-2.3,0l0-3.4L93,77.1z"/>
		<path class="st4" d="M102.6,69.3l-0.1,3.4l-3.6-0.1l-0.1,3.9l3.2,0.1l-0.1,3.4l-3.2-0.1L98.5,84l3.7,0.1l-0.1,3.4l-7.2-0.2
			l0.5-18.1L102.6,69.3z"/>
		<path class="st4" d="M104.1,87.5l1.2-18.1l3.6,0.2c2.3,0.2,6.3,0.7,6,5.6c-0.1,2-1,3.6-2.9,4.5l2.6,8.4l-3.8-0.3l-2.6-8.5l0,0
			l-0.6,8.3L104.1,87.5z M108.4,77.4l0.6,0.1c1.6,0.1,2.3-0.9,2.4-2.4c0.1-1.3-0.5-2.4-2.3-2.4l-0.5,0L108.4,77.4z"/>
	</g>
</g>
</svg>
