<?xml version="1.0" encoding="utf-8"?>
<!-- Generator: Adobe Illustrator 26.2.0, SVG Export Plug-In . SVG Version: 6.00 Build 0)  -->
<svg version="1.1" id="selos" xmlns="http://www.w3.org/2000/svg" xmlns:xlink="http://www.w3.org/1999/xlink" x="0px" y="0px"
	 viewBox="0 0 170 170" style="enable-background:new 0 0 170 170;" xml:space="preserve">
<style type="text/css">
	.st0{fill:#1E97D5;}
	.st1{fill:#FFFFFF;}
	.st2{fill:#4BACDD;}
	.st3{fill:#D5313E;}
	.st4{fill:#DD5A65;}
	.st5{fill:#DBC288;}
	.st6{fill:#EAD69C;}
	.st7{fill:#E52942;}
</style>
<g id="Porter">
	<g>
		<polygon class="st0" points="-102.7,19.7 -86,5.5 -76.6,25.3 -55.6,19 -55,41 -33.3,43.8 -41.7,64 -23,75.5 -38.9,90.5 
			-26.5,108.6 -47.2,115.9 -43.1,137.4 -65,135.7 -70.1,157 -89.3,146.5 -102.7,163.9 -116,146.5 -135.2,157 -140.3,135.7 
			-162.2,137.4 -158.2,115.9 -178.8,108.6 -166.4,90.5 -182.3,75.5 -163.6,64 -172,43.8 -150.3,41 -149.7,19 -128.7,25.3 
			-119.3,5.5 		"/>
		<g>
			<circle class="st1" cx="-102.7" cy="85.4" r="59.8"/>
		</g>
		<path class="st2" d="M-26.1,81c-15.3-9.6-42.9-15.9-74.4-15.9c-34.2,0-63.7,4.8-78,15.8v27.7c14.3-10.9,43.9-15.8,78-15.8
			c31.5,0,59.1,6.4,74.4,15.9V81z"/>
	</g>
	<g>
		<path class="st1" d="M-135,89.2l-2.2-18l3.7-0.4c0.8-0.1,6-1.2,6.7,4.6c0.4,3.4-1.5,5.6-4.8,6h-0.8l0.9,7.4L-135,89.2z
			 M-132.7,78.5c1.7-0.1,2.6-0.9,2.4-2.7c-0.2-1.3-0.8-2.3-2.3-2.1l-0.7,0.1L-132.7,78.5z"/>
		<path class="st1" d="M-112.2,78c0.5,6.8-2.5,9.5-5.7,9.8c-3.2,0.2-6.5-2.1-7-8.9s2.5-9.5,5.7-9.8C-116,68.9-112.7,71.2-112.2,78z
			 M-118.1,84.4c2.4-0.2,2.2-4.8,2.1-6.2c-0.1-1.6-0.6-6-3-5.8s-2.2,4.6-2.1,6.2C-121,80-120.5,84.6-118.1,84.4z"/>
		<path class="st1" d="M-109.9,87l-0.4-18.1l3.6-0.1c2.3,0,6.4,0.1,6.5,5.1c0,2-0.7,3.7-2.5,4.7l3.3,8.2l-3.8,0.1l-3.3-8.3l0,0
			l0.2,8.4L-109.9,87z M-106.5,76.6h0.6c1.6,0,2.3-1.1,2.2-2.6c0-1.3-0.7-2.3-2.5-2.2h-0.5L-106.5,76.6z"/>
		<path class="st1" d="M-88.8,68.9l-0.1,3.4l-2.8-0.1L-92,86.9l-3.6-0.1l0.3-14.7l-2.8-0.1l0.1-3.4L-88.8,68.9z"/>
		<path class="st1" d="M-79.5,69.4l-0.2,3.4l-3.6-0.2l-0.2,3.9l3.2,0.2l-0.2,3.4l-3.2-0.2l-0.2,4.1l3.7,0.2l-0.2,3.4l-7.2-0.4
			l1-18.1L-79.5,69.4z"/>
		<path class="st1" d="M-78.5,87.6l1.7-18l3.6,0.3c2.3,0.2,6.3,0.8,5.8,5.8c-0.2,2-1.1,3.6-3,4.4l2.3,8.5l-3.7-0.4l-2.3-8.6l0,0
			l-0.8,8.3L-78.5,87.6z M-73.9,77.6l0.6,0.1c1.6,0.2,2.4-0.9,2.5-2.4c0.1-1.3-0.4-2.4-2.2-2.5h-0.5L-73.9,77.6z"/>
	</g>
</g>
<g id="Lager">
	<g>
		<polygon class="st3" points="-482.3,20.1 -465.7,5.9 -456.3,25.7 -435.2,19.4 -434.7,41.4 -413,44.2 -421.4,64.4 -402.7,75.9 
			-418.6,90.9 -406.1,109 -426.8,116.3 -422.8,137.8 -444.7,136.1 -449.7,157.4 -469,146.9 -482.3,164.3 -495.6,146.9 -514.9,157.4 
			-520,136.1 -541.8,137.8 -537.8,116.3 -558.5,109 -546.1,90.9 -562,75.9 -543.3,64.4 -551.7,44.2 -529.9,41.4 -529.4,19.4 
			-508.4,25.7 -499,5.9 		"/>
		<g>
			<circle class="st1" cx="-482.3" cy="85.8" r="59.8"/>
		</g>
		<path class="st4" d="M-405.7,81.4c-15.3-9.6-42.9-15.9-74.4-15.9c-34.2,0-63.7,4.8-78,15.8V109c14.3-10.9,43.9-15.8,78-15.8
			c31.5,0,59.1,6.4,74.4,15.9V81.4z"/>
	</g>
	<g>
		<path class="st1" d="M-507.8,70.6l1.5,14.7l3.7-0.4l0.4,3.3l-7.3,0.8l-1.9-18L-507.8,70.6z"/>
		<path class="st1" d="M-495,69.5l5.5,17.8l-3.8,0.2l-0.9-3l-3.6,0.2l-0.5,3.1l-3.5,0.2l3.1-18.3L-495,69.5z M-496.1,77l-0.6-2.7
			l0,0l-0.3,2.8l-0.5,4.9l2.5-0.2L-496.1,77z"/>
		<path class="st1" d="M-477,77.1v1.4c0.1,3.8-0.8,9-5.7,9c-4.9,0.1-6.5-5.1-6.6-9.1c-0.1-4.2,1.2-9.4,6.3-9.5
			c2.8,0,4.6,1.7,5.4,4.2l-3.4,1.4c-0.2-0.9-0.5-2.3-1.9-2.3c-2.4-0.1-2.6,4.4-2.6,6.1c0,1.9,0.2,6,2.8,6c1.8,0,2.1-2.5,2.1-3.7
			h-2.3v-3.4L-477,77.1z"/>
		<path class="st1" d="M-467.4,69.3l-0.1,3.4l-3.6-0.1l-0.1,3.9l3.2,0.1l-0.1,3.4l-3.2-0.1l-0.2,4.1l3.7,0.1l-0.1,3.4l-7.2-0.2
			l0.5-18.1L-467.4,69.3z"/>
		<path class="st1" d="M-465.9,87.5l1.2-18.1l3.6,0.2c2.3,0.2,6.3,0.7,6,5.6c-0.1,2-1,3.6-2.9,4.5l2.6,8.4l-3.8-0.3l-2.6-8.5l0,0
			l-0.6,8.3L-465.9,87.5z M-461.6,77.4l0.6,0.1c1.6,0.1,2.3-0.9,2.4-2.4c0.1-1.3-0.5-2.4-2.3-2.4h-0.5L-461.6,77.4z"/>
	</g>
</g>
<g id="Original">
	<g>
		<polygon class="st5" points="85.3,21.1 102,6.9 111.4,26.7 132.4,20.4 132.9,42.4 154.7,45.2 146.3,65.4 165,76.9 149.1,91.9 
			161.5,110 140.8,117.3 144.8,138.8 123,137.1 117.9,158.4 98.6,147.9 85.3,165.3 72,147.9 52.7,158.4 47.7,137.1 25.8,138.8 
			29.8,117.3 9.1,110 21.6,91.9 5.7,76.9 24.4,65.4 16,45.2 37.7,42.4 38.2,20.4 59.3,26.7 68.7,6.9 		"/>
		<g>
			<circle class="st0" cx="85.3" cy="86.8" r="59.8"/>
		</g>
		<path class="st6" d="M161.9,82.4c-15.3-9.6-42.9-15.9-74.4-15.9c-34.2,0-63.7,4.8-78,15.8V110c14.3-10.9,43.9-15.8,78-15.8
			c31.5,0,59.1,6.4,74.4,15.9V82.4z"/>
	</g>
	<g>
		<path class="st0" d="M56,82.2c1,6.7-1.8,9.7-5,10.1s-6.7-1.6-7.6-8.4c-1-6.7,1.8-9.7,5-10.1C51.6,73.4,55.1,75.5,56,82.2z
			 M50.6,89c2.4-0.3,1.9-4.9,1.7-6.3c-0.2-1.6-1-5.9-3.4-5.6s-1.9,4.7-1.7,6.3C47.4,84.9,48.2,89.4,50.6,89z"/>
		<path class="st0" d="M59,91l-1.6-18l3.6-0.3c2.3-0.2,6.4-0.3,6.8,4.6c0.2,2-0.5,3.8-2.2,4.9l3.8,7.9l-3.8,0.3l-3.9-8l0,0l0.7,8.3
			L59,91z M61.6,80.4h0.6c1.6-0.1,2.2-1.3,2-2.8c-0.1-1.3-0.8-2.3-2.6-2h-0.5L61.6,80.4z"/>
		<path class="st0" d="M74.2,71.8l0.9,18.1l-3.6,0.2L70.6,72L74.2,71.8z"/>
		<path class="st0" d="M88.9,79.4v1.4c0.1,3.8-0.8,9-5.7,9c-4.9,0.1-6.5-5.1-6.6-9.1c-0.1-4.2,1.2-9.4,6.3-9.5
			c2.8,0,4.6,1.7,5.4,4.2l-3.5,1.4c-0.2-0.9-0.5-2.3-1.9-2.3c-2.4-0.1-2.6,4.4-2.6,6.1c0,1.9,0.2,6,2.8,6c1.8,0,2.1-2.5,2.1-3.7
			h-2.3v-3.4L88.9,79.4z"/>
		<path class="st0" d="M94.8,71.6l-0.4,18.1l-3.6-0.1l0.4-18.1L94.8,71.6z"/>
		<path class="st0" d="M101.2,71.8L105,83h0.1c-0.2-0.9-0.2-1.8-0.1-2.7l0.5-8.1l3.6,0.2l-1,18.1l-3.4-0.2l-3.8-11.2h-0.1l0.1,1.8
			v0.7l-0.5,8.3l-3.6-0.2l1-18.1L101.2,71.8z"/>
		<path class="st0" d="M119,73.3l2.4,18.5l-3.8-0.4l-0.3-3.1l-3.6-0.4l-1,3l-3.5-0.4l6.1-17.6L119,73.3z M116.7,80.5l-0.1-2.8l0,0
			l-0.7,2.7l-1.3,4.7l2.5,0.3L116.7,80.5z"/>
		<path class="st0" d="M128.9,74.6l-2.1,14.6l3.7,0.5L130,93l-7.2-1.1l2.6-17.9L128.9,74.6z"/>
	</g>
</g>
<g id="Pale_Ale">
	<g>
		<polygon class="st5" points="-294.4,21.1 -277.8,6.9 -268.4,26.7 -247.4,20.4 -246.8,42.4 -225.1,45.2 -233.5,65.4 -214.8,76.9 
			-230.7,91.9 -218.3,110 -238.9,117.3 -234.9,138.8 -256.8,137.1 -261.9,158.4 -281.1,147.9 -294.4,165.3 -307.8,147.9 -327,158.4 
			-332.1,137.1 -354,138.8 -349.9,117.3 -370.6,110 -358.2,91.9 -374.1,76.9 -355.4,65.4 -363.8,45.2 -342.1,42.4 -341.5,20.4 
			-320.5,26.7 -311.1,6.9 		"/>
		<g>
			<circle class="st3" cx="-294.4" cy="86.8" r="59.8"/>
		</g>
		<path class="st6" d="M-217.8,82.4c-15.3-9.6-42.9-15.9-74.4-15.9c-34.2,0-63.7,4.8-78,15.8V110c14.3-10.9,43.9-15.8,78-15.8
			c31.5,0,59.1,6.4,74.4,15.9C-217.8,110.1-217.8,82.4-217.8,82.4z"/>
	</g>
	<g>
		<path class="st7" d="M-331.2,91.5l-2.6-17.9l3.7-0.5c0.8-0.1,6-1.3,6.8,4.4c0.5,3.3-1.4,5.6-4.7,6.1l-0.8,0.1l1.1,7.4L-331.2,91.5
			z M-329.1,80.7c1.7-0.2,2.6-1,2.3-2.8c-0.2-1.3-0.8-2.3-2.4-2l-0.7,0.1L-329.1,80.7z"/>
		<path class="st7" d="M-315.6,71.3l6.1,17.6l-3.8,0.4l-1-3l-3.6,0.4l-0.4,3.1l-3.5,0.3l2.4-18.4L-315.6,71.3z M-316.5,78.8
			l-0.7-2.7l0,0l-0.1,2.8l-0.3,4.9l2.5-0.2L-316.5,78.8z"/>
		<path class="st7" d="M-305.7,70.6l0.8,14.7l3.7-0.2l0.2,3.4l-7.3,0.4l-1-18.1L-305.7,70.6z"/>
		<path class="st7" d="M-292.7,70.2l0.1,3.4l-3.6,0.1l0.1,3.9l3.2-0.1l0.1,3.4L-296,81l0.1,4.1l3.7-0.1l0.1,3.4l-7.2,0.1l-0.4-18.1
			L-292.7,70.2z"/>
		<path class="st7" d="M-277.4,70.5l3.8,18.2l-3.8-0.1l-0.6-3.1l-3.6-0.1l-0.7,3l-3.6-0.1l4.8-18L-277.4,70.5z M-279.3,77.8
			l-0.3-2.7l0,0l-0.5,2.7l-0.9,4.8l2.5,0.1L-279.3,77.8z"/>
		<path class="st7" d="M-267.5,71.1l-1.1,14.7l3.7,0.3l-0.3,3.3l-7.3-0.6l1.4-18L-267.5,71.1z"/>
		<path class="st7" d="M-254.5,72.4l-0.4,3.3l-3.6-0.4l-0.4,3.9l3.2,0.4l-0.4,3.3l-3.2-0.4l-0.5,4.1l3.6,0.4l-0.4,3.3l-7.2-0.8l2-18
			L-254.5,72.4z"/>
	</g>
</g>
</svg>
