<?xml version="1.0" encoding="utf-8"?>
<!-- Generator: Adobe Illustrator 26.2.0, SVG Export Plug-In . SVG Version: 6.00 Build 0)  -->
<svg version="1.1" id="selos" xmlns="http://www.w3.org/2000/svg" xmlns:xlink="http://www.w3.org/1999/xlink" x="0px" y="0px"
	 viewBox="0 0 170 170" style="enable-background:new 0 0 170 170;" xml:space="preserve">
<path d="M23.3,64.7c0,16.8-8.6,20.6-8.6,39.3c0,26.9,20.8,44.5,40.1,49.4c9.8,2.4,12.7,2.5,21.5,4.7c0.7,0.8,9,9.7,9,9.7
	s8.3-8.9,9-9.7c8.8-2.2,11.8-2.3,21.5-4.7c19.3-5,40.1-22.6,40.1-49.4c0-18.7-8.6-22.5-8.6-39.3c0-6.1,1.3-12.1,3.8-17.8l5.5-12.4
	l-12.9-3.8c-3.9-1.2-6.8-4.2-8.6-9.1L129.4,6l-12.7,10.5c-3.4,2.8-6.8,4.2-10.2,4.2c-4.5,0-9.6-2.2-13-5.6L85.3,7l-8.2,8.1
	c-3.4,3.4-8.6,5.6-13.1,5.6c-3.4,0-6.8-1.4-10.2-4.2L41.2,6l-5.7,15.6c-1.8,4.8-4.7,7.9-8.6,9.1L14,34.5l5.5,12.4
	C22,52.6,23.3,58.6,23.3,64.7 M27.5,32.7c4.6-1.4,8-4.8,10-10.4l4.7-12.8l10.4,8.6c3.4,2.8,7.3,4.7,11.5,4.7
	c5.6,0,11.1-2.8,14.5-6.2l6.7-6.6l6.7,6.6c3.5,3.4,9,6.2,14.5,6.2c4.2,0,8.1-1.9,11.5-4.7l10.4-8.6l4.7,12.8c2,5.5,5.4,9,10,10.4
	l10.6,3.1L149.2,46c-2.3,5.2-4,11.5-4,18.6c0,9,2.3,14.3,4.5,19.9c2.1,5.2,4.1,10.5,4.1,19.4c0,24.6-18.3,42.2-38.5,47.4
	c-10,2.5-14.7,2.8-22.1,4.9c-1,1-7.9,8.5-7.9,8.5s-6.9-7.4-7.9-8.5c-7.5-2.1-12.1-2.3-22.1-4.9c-15.6-4-30.1-15.5-35.8-31.8
	c-1.7-4.8-2.7-10-2.7-15.6c0-18.3,8.6-21.8,8.6-39.3c0-7.2-1.7-13.5-4-18.6l-4.5-10.2L27.5,32.7z M58,136.3c0.4,0.1,0.7,0.2,1.1,0.3
	c9.4,2.4,21,3.6,24.5,5.6c0.8,0.6,1.7,1.6,1.7,1.6s1-1,1.7-1.6c3.5-2,15-3.2,24.5-5.6c13.1-3.3,27.2-15,27.2-32.6
	c0-8.8-3.9-14.6-6.4-23.5 M32.9,96.4l78-58.6c-1.4,0.2-2.9,0.3-4.4,0.3c-9.5,0-17-4.2-21.2-7.3c-4.3,3.1-11.7,7.3-21.2,7.3
	c-6.3,0-11.6-2.1-15.4-4.2c-3.5,5.9-7.9,9.3-11.4,11.2c1.5,4.5,3.3,11.5,3.3,19.6C40.5,80.2,35.1,87.5,32.9,96.4 M51.1,133.6
	l79.7-59.9c-0.4-2.7-0.7-5.7-0.7-9c0-8.1,1.7-15.1,3.3-19.6c-3-1.7-6.7-4.4-9.9-8.8L31.9,105C32.4,118.6,41.1,128.4,51.1,133.6
	 M112.3,50.7v22.9l12.1-9.1c0,0-0.4,2.9,0,7.9l-19,14.3V62c0-3.5-3.3-3.6-3.3-3.6L112.3,50.7z M85.6,70.8v11.4l7.6-5.7V65.1l6.6-4.9
	V91l-6.6,4.9V84.6l-7.6,5.7v11.3l-6.9,5.2V82.1c0-3.5-3.3-3.6-3.3-3.6L85.6,70.8z M57.4,92l8.6,13.1V85.5l6.7-5v30.8l-7.1,5.3
	L58,104.9v17.5l-6.7,5v-24.7c0-3.5-3.3-3.6-3.3-3.6L57.4,92z M29.9,69.8c-1.4,13.9-8.3,19.5-8.3,34.2c0,18,12.3,37,34.9,42.7
	c10.7,2.7,18.1,3.4,23.5,5.4c0.7,0.7,5.2,5.6,5.2,5.6s4.5-4.9,5.2-5.6c5.4-2,12.8-2.6,23.5-5.4C136.6,140.9,149,122,149,104
	c0-16.4-8.5-21.4-8.5-39.3c0-13.9,6.6-25.7,6.6-25.7s-16.3-1.4-20.8-21.3c0,0-9.8,10.1-19.7,10.1c-12.8,0-21.2-10.9-21.2-10.9
	S77,27.8,64.2,27.8c-9.9,0-19.7-10.1-19.7-10.1C40.1,37.6,23.7,39,23.7,39s6.7,11.8,6.7,25.7C30.2,66.5,30.1,68.2,29.9,69.8
	 M30.2,42.1c0,0,11.1-2.2,16.3-16.3c0,0,7.4,6.9,17.6,6.9c12.8,0,21.2-9,21.2-9s8.5,9,21.2,9c10.2,0,17.6-6.9,17.6-6.9
	c5.2,14.1,16.3,16.3,16.3,16.3s-4.8,9.8-4.8,22.6c0,18.9,8.6,24.4,8.6,39.3c0,20.8-16.2,34.1-31.3,37.9c-11.9,3-19.7,3.4-24.9,5.9
	c0,0-1.9,1.7-2.6,2.5c-0.7-0.8-2.6-2.5-2.6-2.5c-5.2-2.5-13-2.9-25-5.9c-15-3.8-31.3-17.1-31.3-37.9c0-14.9,8.6-20.4,8.6-39.3
	C35,51.9,30.2,42.1,30.2,42.1z"/>
</svg>
