<?xml version="1.0" encoding="utf-8"?>
<!-- Generator: Adobe Illustrator 26.1.0, SVG Export Plug-In . SVG Version: 6.00 Build 0)  -->
<svg version="1.1" id="selos" xmlns="http://www.w3.org/2000/svg" xmlns:xlink="http://www.w3.org/1999/xlink" x="0px" y="0px"
	 viewBox="0 0 170 170" style="enable-background:new 0 0 170 170;" xml:space="preserve">
<style type="text/css">
	.st0{fill:#DBC288;}
	.st1{fill:#FFFFFF;}
	.st2{fill:#EAD69C;}
	.st3{fill:#1E97D5;}
	.st4{fill:#E52942;}
	.st5{fill:#D5313E;}
</style>
<g id="Porter">
	<g>
		<polygon class="st0" points="85.4,20.1 102.1,5.9 111.5,25.7 132.5,19.4 133.1,41.4 154.8,44.2 146.4,64.4 165.1,75.9 149.2,90.9 
			161.6,109 140.9,116.3 145,137.8 123.1,136.1 118,157.4 98.8,146.9 85.4,164.3 72.1,146.9 52.9,157.4 47.8,136.1 25.9,137.8 
			29.9,116.3 9.3,109 21.7,90.9 5.8,75.9 24.5,64.4 16.1,44.2 37.8,41.4 38.4,19.4 59.4,25.7 68.8,5.9 		"/>
		<g>
			<circle class="st1" cx="85.4" cy="85.8" r="59.8"/>
		</g>
		<path class="st2" d="M162,81.4c-15.3-9.6-42.9-15.9-74.4-15.9c-34.2,0-63.7,4.8-78,15.8V109c14.3-10.9,43.9-15.8,78-15.8
			c31.5,0,59.1,6.4,74.4,15.9V81.4z"/>
	</g>
	<g>
		<path class="st3" d="M53.1,89.6l-2.2-18l3.7-0.4c0.8-0.1,6-1.2,6.7,4.6c0.4,3.4-1.5,5.6-4.8,6l-0.8,0l0.9,7.4L53.1,89.6z
			 M55.4,78.9c1.7-0.1,2.6-0.9,2.4-2.7c-0.2-1.3-0.8-2.3-2.3-2.1l-0.7,0.1L55.4,78.9z"/>
		<path class="st3" d="M75.9,78.4c0.5,6.8-2.5,9.5-5.7,9.8c-3.2,0.2-6.5-2.1-7-8.9s2.5-9.5,5.7-9.8C72.1,69.3,75.4,71.6,75.9,78.4z
			 M70,84.8c2.4-0.2,2.2-4.8,2.1-6.2c-0.1-1.6-0.6-6-3-5.8C66.7,73,66.9,77.4,67,79C67.1,80.4,67.6,85,70,84.8z"/>
		<path class="st3" d="M78.2,87.4l-0.4-18.1l3.6-0.1c2.3,0,6.4,0.1,6.5,5.1c0,2-0.7,3.7-2.5,4.7l3.3,8.2L85,87.2l-3.3-8.3l0,0
			l0.2,8.4L78.2,87.4z M81.6,77l0.6,0c1.6,0,2.3-1.1,2.2-2.6c0-1.3-0.7-2.3-2.5-2.2l-0.5,0L81.6,77z"/>
		<path class="st3" d="M99.3,69.3l-0.1,3.4l-2.8-0.1l-0.3,14.7l-3.6-0.1l0.3-14.7L90,72.4l0.1-3.4L99.3,69.3z"/>
		<path class="st3" d="M108.6,69.8l-0.2,3.4l-3.6-0.2l-0.2,3.9l3.2,0.2l-0.2,3.4l-3.2-0.2l-0.2,4.1l3.7,0.2l-0.2,3.4l-7.2-0.4
			l1-18.1L108.6,69.8z"/>
		<path class="st3" d="M109.6,88l1.7-18l3.6,0.3c2.3,0.2,6.3,0.8,5.8,5.8c-0.2,2-1.1,3.6-3,4.4l2.3,8.5l-3.7-0.4L114,80l0,0
			l-0.8,8.3L109.6,88z M114.2,78l0.6,0.1c1.6,0.2,2.4-0.9,2.5-2.4c0.1-1.3-0.4-2.4-2.2-2.5l-0.5,0L114.2,78z"/>
	</g>
</g>
</svg>
