<?xml version="1.0" encoding="utf-8"?>
<!-- Generator: Adobe Illustrator 26.1.0, SVG Export Plug-In . SVG Version: 6.00 Build 0)  -->
<svg version="1.1" id="selos" xmlns="http://www.w3.org/2000/svg" xmlns:xlink="http://www.w3.org/1999/xlink" x="0px" y="0px"
	 viewBox="0 0 170 170" style="enable-background:new 0 0 170 170;" xml:space="preserve">
<style type="text/css">
	.st0{fill:#DBC288;}
	.st1{fill:#FFFFFF;}
	.st2{fill:#EAD69C;}
	.st3{fill:#1E97D5;}
	.st4{fill:#E52942;}
	.st5{fill:#D5313E;}
</style>
<g id="Pale_Ale">
	<g>
		<polygon class="st0" points="86.6,20.1 103.2,5.9 112.6,25.7 133.6,19.4 134.2,41.4 155.9,44.2 147.5,64.4 166.2,75.9 150.3,90.9 
			162.7,109 142.1,116.3 146.1,137.8 124.2,136.1 119.1,157.4 99.9,146.9 86.6,164.3 73.2,146.9 54,157.4 48.9,136.1 27,137.8 
			31.1,116.3 10.4,109 22.8,90.9 6.9,75.9 25.6,64.4 17.2,44.2 38.9,41.4 39.5,19.4 60.5,25.7 69.9,5.9 		"/>
		<g>
			<circle class="st5" cx="86.6" cy="85.8" r="59.8"/>
		</g>
		<path class="st2" d="M163.2,81.4c-15.3-9.6-42.9-15.9-74.4-15.9c-34.2,0-63.7,4.8-78,15.8V109c14.3-10.9,43.9-15.8,78-15.8
			c31.5,0,59.1,6.4,74.4,15.9V81.4z"/>
	</g>
	<g>
		<path class="st4" d="M49.8,90.5l-2.6-17.9l3.7-0.5c0.8-0.1,6-1.3,6.8,4.4c0.5,3.3-1.4,5.6-4.7,6.1l-0.8,0.1l1.1,7.4L49.8,90.5z
			 M51.9,79.7c1.7-0.2,2.6-1,2.3-2.8c-0.2-1.3-0.8-2.3-2.4-2L51.2,75L51.9,79.7z"/>
		<path class="st4" d="M65.4,70.3l6.1,17.6l-3.8,0.4l-1-3l-3.6,0.4l-0.4,3.1l-3.5,0.3l2.4-18.4L65.4,70.3z M64.5,77.8l-0.7-2.7l0,0
			l-0.1,2.8l-0.3,4.9l2.5-0.2L64.5,77.8z"/>
		<path class="st4" d="M75.3,69.6l0.8,14.7l3.7-0.2l0.2,3.4l-7.3,0.4l-1-18.1L75.3,69.6z"/>
		<path class="st4" d="M88.3,69.2l0.1,3.4l-3.6,0.1l0.1,3.9l3.2-0.1l0.1,3.4l-3.2,0.1L85,84l3.7-0.1l0.1,3.4l-7.2,0.1l-0.4-18.1
			L88.3,69.2z"/>
		<path class="st4" d="M103.6,69.5l3.8,18.2l-3.8-0.1l-0.6-3.1l-3.6-0.1l-0.7,3L95,87.3l4.8-18L103.6,69.5z M101.7,76.8l-0.3-2.7
			l0,0l-0.5,2.7l-0.9,4.8l2.5,0.1L101.7,76.8z"/>
		<path class="st4" d="M113.5,70.1l-1.1,14.7l3.7,0.3l-0.3,3.3l-7.3-0.6l1.4-18L113.5,70.1z"/>
		<path class="st4" d="M126.5,71.4l-0.4,3.3l-3.6-0.4l-0.4,3.9l3.2,0.4l-0.4,3.3l-3.2-0.4l-0.5,4.1l3.6,0.4l-0.4,3.3l-7.2-0.8l2-18
			L126.5,71.4z"/>
	</g>
</g>
</svg>
