<?xml version="1.0" encoding="utf-8"?>
<!-- Generator: Adobe Illustrator 26.1.0, SVG Export Plug-In . SVG Version: 6.00 Build 0)  -->
<svg version="1.1" id="selos" xmlns="http://www.w3.org/2000/svg" xmlns:xlink="http://www.w3.org/1999/xlink" x="0px" y="0px"
	 viewBox="0 0 170 170" style="enable-background:new 0 0 170 170;" xml:space="preserve">
<style type="text/css">
	.st0{fill:#DBC288;}
	.st1{fill:#FFFFFF;}
	.st2{fill:#EAD69C;}
	.st3{fill:#1E97D5;}
	.st4{fill:#E52942;}
	.st5{fill:#D5313E;}
</style>
<g id="Original">
	<g>
		<polygon class="st0" points="84.3,20.1 101,5.9 110.4,25.7 131.4,19.4 131.9,41.4 153.7,44.2 145.3,64.4 164,75.9 148.1,90.9 
			160.5,109 139.8,116.3 143.8,137.8 122,136.1 116.9,157.4 97.6,146.9 84.3,164.3 71,146.9 51.7,157.4 46.7,136.1 24.8,137.8 
			28.8,116.3 8.1,109 20.6,90.9 4.7,75.9 23.4,64.4 15,44.2 36.7,41.4 37.2,19.4 58.3,25.7 67.7,5.9 		"/>
		<g>
			<circle class="st3" cx="84.3" cy="85.8" r="59.8"/>
		</g>
		<path class="st2" d="M160.9,81.4c-15.3-9.6-42.9-15.9-74.4-15.9c-34.2,0-63.7,4.8-78,15.8V109c14.3-10.9,43.9-15.8,78-15.8
			c31.5,0,59.1,6.4,74.4,15.9V81.4z"/>
	</g>
	<g>
		<path class="st3" d="M55,81.2c1,6.7-1.8,9.7-5,10.1s-6.7-1.6-7.6-8.4c-1-6.7,1.8-9.7,5-10.1C50.6,72.4,54.1,74.5,55,81.2z
			 M49.6,88c2.4-0.3,1.9-4.9,1.7-6.3c-0.2-1.6-1-5.9-3.4-5.6c-2.4,0.3-1.9,4.7-1.7,6.3C46.4,83.9,47.2,88.4,49.6,88z"/>
		<path class="st3" d="M58,90l-1.6-18l3.6-0.3c2.3-0.2,6.4-0.3,6.8,4.6c0.2,2-0.5,3.8-2.2,4.9l3.8,7.9l-3.8,0.3l-3.9-8l0,0l0.7,8.3
			L58,90z M60.6,79.4l0.6,0c1.6-0.1,2.2-1.3,2-2.8c-0.1-1.3-0.8-2.3-2.6-2l-0.5,0L60.6,79.4z"/>
		<path class="st3" d="M73.2,70.8l0.9,18.1L70.5,89l-0.9-18.1L73.2,70.8z"/>
		<path class="st3" d="M87.9,78.4l0,1.4c0.1,3.8-0.8,9-5.7,9c-4.9,0.1-6.5-5.1-6.6-9.1c-0.1-4.2,1.2-9.4,6.3-9.5
			c2.8,0,4.6,1.7,5.4,4.2l-3.5,1.4c-0.2-0.9-0.5-2.3-1.9-2.3c-2.4-0.1-2.6,4.4-2.6,6.1c0,1.9,0.2,6,2.8,6c1.8,0,2.1-2.5,2.1-3.7
			l-2.3,0l0-3.4L87.9,78.4z"/>
		<path class="st3" d="M93.8,70.6l-0.4,18.1l-3.6-0.1l0.4-18.1L93.8,70.6z"/>
		<path class="st3" d="M100.2,70.8l3.8,11.2l0.1,0c-0.2-0.9-0.2-1.8-0.1-2.7l0.5-8.1l3.6,0.2l-1,18.1l-3.4-0.2L99.8,78l-0.1,0
			l0.1,1.8l0,0.7l-0.5,8.3l-3.6-0.2l1-18.1L100.2,70.8z"/>
		<path class="st3" d="M118,72.3l2.4,18.5l-3.8-0.4l-0.3-3.1l-3.6-0.4l-1,3l-3.5-0.4l6.1-17.6L118,72.3z M115.7,79.5l-0.1-2.8l0,0
			l-0.7,2.7l-1.3,4.7l2.5,0.3L115.7,79.5z"/>
		<path class="st3" d="M127.9,73.6l-2.1,14.6l3.7,0.5L129,92l-7.2-1.1l2.6-17.9L127.9,73.6z"/>
	</g>
</g>
</svg>
