<svg xmlns="http://www.w3.org/2000/svg" width="30" height="1080" viewBox="0 0 30 1080">
  <g id="Group_184" data-name="Group 184" transform="translate(-28 -321)">
    <g id="Group_119" data-name="Group 119" transform="translate(10 -32)">
      <g id="Ellipse_6" data-name="Ellipse 6" transform="translate(18 353)" fill="#fff" stroke="#0087cd" stroke-width="2">
        <circle cx="15" cy="15" r="15" stroke="none"/>
        <circle cx="15" cy="15" r="14" fill="none"/>
      </g>
      <path id="Polygon_1" data-name="Polygon 1" d="M8.684,0l8.684,15H0Z" transform="translate(41.491 377.783) rotate(180)" fill="#0087cd"/>
    </g>
    <line id="Line_32" data-name="Line 32" y2="1027" transform="translate(43.5 351.5)" fill="none" stroke="#bdbdbd" stroke-width="2" stroke-dasharray="5"/>
    <g id="Group_120" data-name="Group 120" transform="translate(10 342)">
      <g id="Path_429" data-name="Path 429" transform="translate(18 353)" fill="#fff">
        <path d="M 15 29 C 11.26047039031982 29 7.744760036468506 27.54375076293945 5.100510120391846 24.89949035644531 C 2.456249952316284 22.25523948669434 1 18.73953056335449 1 15 C 1 11.26047039031982 2.456249952316284 7.744760036468506 5.100510120391846 5.100510120391846 C 7.744760036468506 2.456249952316284 11.26047039031982 1 15 1 C 18.73953056335449 1 22.25523948669434 2.456249952316284 24.89949035644531 5.100510120391846 C 27.54375076293945 7.744760036468506 29 11.26047039031982 29 15 C 29 18.73953056335449 27.54375076293945 22.25523948669434 24.89949035644531 24.89949035644531 C 22.25523948669434 27.54375076293945 18.73953056335449 29 15 29 Z" stroke="none"/>
        <path d="M 15 2 C 11.5275707244873 2 8.262990951538086 3.352239608764648 5.807609558105469 5.807609558105469 C 3.352239608764648 8.262990951538086 2 11.5275707244873 2 15 C 2 18.47243118286133 3.352239608764648 21.73701095581055 5.807609558105469 24.19239044189453 C 8.262990951538086 26.64776039123535 11.5275707244873 28 15 28 C 18.47243118286133 28 21.73701095581055 26.64776039123535 24.19239044189453 24.19239044189453 C 26.64776039123535 21.73701095581055 28 18.47243118286133 28 15 C 28 11.5275707244873 26.64776039123535 8.262990951538086 24.19239044189453 5.807609558105469 C 21.73701095581055 3.352239608764648 18.47243118286133 2 15 2 M 15 0 C 23.28426933288574 0 30 6.715730667114258 30 15 C 30 23.28426933288574 23.28426933288574 30 15 30 C 6.715730667114258 30 0 23.28426933288574 0 15 C 0 6.715730667114258 6.715730667114258 0 15 0 Z" stroke="none" fill="#dc0e32"/>
      </g>
      <path id="Path_430" data-name="Path 430" d="M8.684,0l8.684,15H0Z" transform="translate(41.491 377.783) rotate(180)" fill="#dc0e32"/>
    </g>
    <g id="Group_121" data-name="Group 121" transform="translate(10 680)">
      <g id="Ellipse_6-2" data-name="Ellipse 6" transform="translate(18 353)" fill="#fff" stroke="#0087cd" stroke-width="2">
        <circle cx="15" cy="15" r="15" stroke="none"/>
        <circle cx="15" cy="15" r="14" fill="none"/>
      </g>
      <path id="Path_431" data-name="Path 431" d="M8.684,0l8.684,15H0Z" transform="translate(41.491 377.783) rotate(180)" fill="#0087cd"/>
    </g>
    <g id="Group_122" data-name="Group 122" transform="translate(10 1018)">
      <g id="Ellipse_6-3" data-name="Ellipse 6" transform="translate(18 353)" fill="#fff" stroke="#dc0e32" stroke-width="2">
        <circle cx="15" cy="15" r="15" stroke="none"/>
        <circle cx="15" cy="15" r="14" fill="none"/>
      </g>
      <path id="Path_432" data-name="Path 432" d="M8.684,0l8.684,15H0Z" transform="translate(41.491 377.783) rotate(180)" fill="#dc0e32"/>
    </g>
  </g>
</svg>
